G04 MADE WITH FRITZING*
G04 WWW.FRITZING.ORG*
G04 DOUBLE SIDED*
G04 HOLES PLATED*
G04 CONTOUR ON CENTER OF CONTOUR VECTOR*
%FSLAX26Y26*%
%MOIN*%
%ADD10C,0.005000*%
%ADD10C,0.008*%
G04 CONTOUR*
%FSLAX26Y26*%
%MOIN*%
D10*
D10*
X0Y5078740D02*
X0Y5077740D01*
X0Y2740D01*
X1000Y2740D01*
X2000Y2740D01*
X3000Y2740D01*
X4000Y2740D01*
X5000Y2740D01*
X6000Y2740D01*
X7000Y2740D01*
X8000Y2740D01*
X9000Y2740D01*
X10000Y2740D01*
X11000Y2740D01*
X12000Y2740D01*
X13000Y2740D01*
X14000Y2740D01*
X15000Y2740D01*
X16000Y2740D01*
X17000Y2740D01*
X18000Y2740D01*
X19000Y2740D01*
X20000Y2740D01*
X21000Y2740D01*
X22000Y2740D01*
X23000Y2740D01*
X24000Y2740D01*
X25000Y2740D01*
X26000Y2740D01*
X27000Y2740D01*
X28000Y2740D01*
X29000Y2740D01*
X30000Y2740D01*
X31000Y2740D01*
X32000Y2740D01*
X33000Y2740D01*
X34000Y2740D01*
X35000Y2740D01*
X36000Y2740D01*
X37000Y2740D01*
X38000Y2740D01*
X39000Y2740D01*
X40000Y2740D01*
X41000Y2740D01*
X42000Y2740D01*
X43000Y2740D01*
X44000Y2740D01*
X45000Y2740D01*
X46000Y2740D01*
X47000Y2740D01*
X48000Y2740D01*
X49000Y2740D01*
X50000Y2740D01*
X51000Y2740D01*
X52000Y2740D01*
X53000Y2740D01*
X54000Y2740D01*
X55000Y2740D01*
X56000Y2740D01*
X57000Y2740D01*
X58000Y2740D01*
X59000Y2740D01*
X60000Y2740D01*
X61000Y2740D01*
X62000Y2740D01*
X63000Y2740D01*
X64000Y2740D01*
X65000Y2740D01*
X66000Y2740D01*
X67000Y2740D01*
X68000Y2740D01*
X69000Y2740D01*
X70000Y2740D01*
X71000Y2740D01*
X72000Y2740D01*
X73000Y2740D01*
X74000Y2740D01*
X75000Y2740D01*
X76000Y2740D01*
X77000Y2740D01*
X78000Y2740D01*
X79000Y2740D01*
X80000Y2740D01*
X81000Y2740D01*
X82000Y2740D01*
X83000Y2740D01*
X84000Y2740D01*
X85000Y2740D01*
X86000Y2740D01*
X87000Y2740D01*
X88000Y2740D01*
X89000Y2740D01*
X90000Y2740D01*
X91000Y2740D01*
X92000Y2740D01*
X93000Y2740D01*
X94000Y2740D01*
X95000Y2740D01*
X96000Y2740D01*
X97000Y2740D01*
X98000Y2740D01*
X99000Y2740D01*
X100000Y2740D01*
X101000Y2740D01*
X102000Y2740D01*
X103000Y2740D01*
X104000Y2740D01*
X105000Y2740D01*
X106000Y2740D01*
X107000Y2740D01*
X108000Y2740D01*
X109000Y2740D01*
X110000Y2740D01*
X111000Y2740D01*
X112000Y2740D01*
X113000Y2740D01*
X114000Y2740D01*
X115000Y2740D01*
X116000Y2740D01*
X117000Y2740D01*
X118000Y2740D01*
X119000Y2740D01*
X120000Y2740D01*
X121000Y2740D01*
X122000Y2740D01*
X123000Y2740D01*
X124000Y2740D01*
X125000Y2740D01*
X126000Y2740D01*
X127000Y2740D01*
X128000Y1740D01*
X129000Y1740D01*
X130000Y1740D01*
X131000Y1740D01*
X132000Y1740D01*
X133000Y1740D01*
X134000Y1740D01*
X135000Y1740D01*
X136000Y1740D01*
X137000Y1740D01*
X138000Y1740D01*
X139000Y1740D01*
X140000Y1740D01*
X141000Y1740D01*
X142000Y1740D01*
X143000Y1740D01*
X144000Y1740D01*
X145000Y1740D01*
X146000Y1740D01*
X147000Y1740D01*
X148000Y1740D01*
X149000Y1740D01*
X150000Y1740D01*
X151000Y1740D01*
X152000Y1740D01*
X153000Y1740D01*
X154000Y1740D01*
X155000Y1740D01*
X156000Y1740D01*
X157000Y1740D01*
X158000Y1740D01*
X159000Y1740D01*
X160000Y1740D01*
X161000Y1740D01*
X162000Y1740D01*
X163000Y1740D01*
X164000Y1740D01*
X165000Y1740D01*
X166000Y1740D01*
X167000Y1740D01*
X168000Y1740D01*
X169000Y1740D01*
X170000Y1740D01*
X171000Y1740D01*
X172000Y1740D01*
X173000Y1740D01*
X174000Y1740D01*
X175000Y1740D01*
X176000Y1740D01*
X177000Y1740D01*
X178000Y1740D01*
X179000Y1740D01*
X180000Y1740D01*
X181000Y1740D01*
X182000Y1740D01*
X183000Y1740D01*
X184000Y1740D01*
X185000Y1740D01*
X186000Y1740D01*
X187000Y1740D01*
X188000Y1740D01*
X189000Y1740D01*
X190000Y1740D01*
X191000Y1740D01*
X192000Y1740D01*
X193000Y1740D01*
X194000Y1740D01*
X195000Y1740D01*
X196000Y1740D01*
X197000Y1740D01*
X198000Y1740D01*
X199000Y1740D01*
X200000Y1740D01*
X201000Y1740D01*
X202000Y1740D01*
X203000Y1740D01*
X204000Y1740D01*
X205000Y1740D01*
X206000Y1740D01*
X207000Y1740D01*
X208000Y1740D01*
X209000Y1740D01*
X210000Y1740D01*
X211000Y1740D01*
X212000Y1740D01*
X213000Y1740D01*
X214000Y1740D01*
X215000Y1740D01*
X216000Y1740D01*
X217000Y1740D01*
X218000Y1740D01*
X219000Y1740D01*
X220000Y1740D01*
X221000Y1740D01*
X222000Y1740D01*
X223000Y1740D01*
X224000Y1740D01*
X225000Y1740D01*
X226000Y1740D01*
X227000Y1740D01*
X228000Y1740D01*
X229000Y1740D01*
X230000Y1740D01*
X231000Y1740D01*
X232000Y1740D01*
X233000Y1740D01*
X234000Y1740D01*
X235000Y1740D01*
X236000Y1740D01*
X237000Y1740D01*
X238000Y1740D01*
X239000Y1740D01*
X240000Y1740D01*
X241000Y1740D01*
X242000Y1740D01*
X243000Y1740D01*
X244000Y1740D01*
X245000Y1740D01*
X246000Y1740D01*
X247000Y1740D01*
X248000Y1740D01*
X249000Y1740D01*
X250000Y1740D01*
X251000Y1740D01*
X252000Y1740D01*
X253000Y1740D01*
X254000Y1740D01*
X255000Y1740D01*
X256000Y1740D01*
X257000Y1740D01*
X258000Y1740D01*
X259000Y1740D01*
X260000Y1740D01*
X261000Y1740D01*
X262000Y1740D01*
X263000Y1740D01*
X264000Y1740D01*
X265000Y1740D01*
X266000Y1740D01*
X267000Y1740D01*
X268000Y1740D01*
X269000Y1740D01*
X270000Y1740D01*
X271000Y1740D01*
X272000Y1740D01*
X273000Y1740D01*
X274000Y1740D01*
X275000Y1740D01*
X276000Y1740D01*
X277000Y1740D01*
X278000Y1740D01*
X279000Y1740D01*
X280000Y1740D01*
X281000Y1740D01*
X282000Y1740D01*
X283000Y1740D01*
X284000Y1740D01*
X285000Y1740D01*
X286000Y1740D01*
X287000Y1740D01*
X288000Y1740D01*
X289000Y1740D01*
X290000Y1740D01*
X291000Y1740D01*
X292000Y1740D01*
X293000Y1740D01*
X294000Y1740D01*
X295000Y1740D01*
X296000Y1740D01*
X297000Y1740D01*
X298000Y1740D01*
X299000Y1740D01*
X300000Y1740D01*
X301000Y1740D01*
X302000Y1740D01*
X303000Y1740D01*
X304000Y1740D01*
X305000Y1740D01*
X306000Y1740D01*
X307000Y1740D01*
X308000Y1740D01*
X309000Y1740D01*
X310000Y1740D01*
X311000Y1740D01*
X312000Y1740D01*
X313000Y1740D01*
X314000Y1740D01*
X315000Y1740D01*
X316000Y1740D01*
X317000Y1740D01*
X318000Y1740D01*
X319000Y1740D01*
X320000Y1740D01*
X321000Y1740D01*
X322000Y1740D01*
X323000Y1740D01*
X324000Y1740D01*
X325000Y1740D01*
X326000Y1740D01*
X327000Y1740D01*
X328000Y1740D01*
X329000Y1740D01*
X330000Y1740D01*
X331000Y1740D01*
X332000Y1740D01*
X333000Y1740D01*
X334000Y1740D01*
X335000Y1740D01*
X336000Y1740D01*
X337000Y1740D01*
X338000Y1740D01*
X339000Y1740D01*
X340000Y1740D01*
X341000Y1740D01*
X342000Y1740D01*
X343000Y1740D01*
X344000Y1740D01*
X345000Y1740D01*
X346000Y1740D01*
X347000Y1740D01*
X348000Y1740D01*
X349000Y1740D01*
X350000Y1740D01*
X351000Y1740D01*
X352000Y1740D01*
X353000Y1740D01*
X354000Y1740D01*
X355000Y1740D01*
X356000Y1740D01*
X357000Y1740D01*
X358000Y1740D01*
X359000Y1740D01*
X360000Y1740D01*
X361000Y1740D01*
X362000Y1740D01*
X363000Y1740D01*
X364000Y1740D01*
X365000Y1740D01*
X366000Y1740D01*
X367000Y1740D01*
X368000Y1740D01*
X369000Y1740D01*
X370000Y1740D01*
X371000Y1740D01*
X372000Y1740D01*
X373000Y1740D01*
X374000Y1740D01*
X375000Y1740D01*
X376000Y1740D01*
X377000Y1740D01*
X378000Y1740D01*
X379000Y1740D01*
X380000Y1740D01*
X381000Y1740D01*
X382000Y1740D01*
X383000Y1740D01*
X384000Y1740D01*
X385000Y1740D01*
X386000Y1740D01*
X387000Y1740D01*
X388000Y1740D01*
X389000Y1740D01*
X390000Y1740D01*
X391000Y1740D01*
X392000Y1740D01*
X393000Y1740D01*
X394000Y1740D01*
X395000Y1740D01*
X396000Y1740D01*
X397000Y1740D01*
X398000Y1740D01*
X399000Y1740D01*
X400000Y1740D01*
X401000Y1740D01*
X402000Y1740D01*
X403000Y1740D01*
X404000Y1740D01*
X405000Y1740D01*
X406000Y1740D01*
X407000Y1740D01*
X408000Y1740D01*
X409000Y1740D01*
X410000Y1740D01*
X411000Y1740D01*
X412000Y1740D01*
X413000Y1740D01*
X414000Y1740D01*
X415000Y1740D01*
X416000Y1740D01*
X417000Y1740D01*
X418000Y1740D01*
X419000Y1740D01*
X420000Y1740D01*
X421000Y1740D01*
X422000Y1740D01*
X423000Y1740D01*
X424000Y1740D01*
X425000Y1740D01*
X426000Y1740D01*
X427000Y1740D01*
X428000Y1740D01*
X429000Y1740D01*
X430000Y1740D01*
X431000Y1740D01*
X432000Y1740D01*
X433000Y1740D01*
X434000Y1740D01*
X435000Y1740D01*
X436000Y1740D01*
X437000Y1740D01*
X438000Y1740D01*
X439000Y1740D01*
X440000Y1740D01*
X441000Y1740D01*
X442000Y1740D01*
X443000Y1740D01*
X444000Y1740D01*
X445000Y1740D01*
X446000Y1740D01*
X447000Y1740D01*
X448000Y1740D01*
X449000Y1740D01*
X450000Y1740D01*
X451000Y1740D01*
X452000Y1740D01*
X453000Y1740D01*
X454000Y1740D01*
X455000Y1740D01*
X456000Y1740D01*
X457000Y1740D01*
X458000Y1740D01*
X459000Y1740D01*
X460000Y1740D01*
X461000Y1740D01*
X462000Y1740D01*
X463000Y1740D01*
X464000Y1740D01*
X465000Y1740D01*
X466000Y1740D01*
X467000Y1740D01*
X468000Y1740D01*
X469000Y1740D01*
X470000Y1740D01*
X471000Y1740D01*
X472000Y1740D01*
X473000Y1740D01*
X474000Y1740D01*
X475000Y1740D01*
X476000Y1740D01*
X477000Y1740D01*
X478000Y1740D01*
X479000Y1740D01*
X480000Y1740D01*
X481000Y1740D01*
X482000Y1740D01*
X483000Y1740D01*
X484000Y1740D01*
X485000Y1740D01*
X486000Y1740D01*
X487000Y1740D01*
X488000Y1740D01*
X489000Y1740D01*
X490000Y1740D01*
X491000Y1740D01*
X492000Y1740D01*
X493000Y1740D01*
X494000Y1740D01*
X495000Y1740D01*
X496000Y1740D01*
X497000Y1740D01*
X498000Y1740D01*
X499000Y1740D01*
X500000Y1740D01*
X501000Y1740D01*
X502000Y1740D01*
X503000Y1740D01*
X504000Y1740D01*
X505000Y1740D01*
X506000Y1740D01*
X507000Y1740D01*
X508000Y1740D01*
X509000Y1740D01*
X510000Y1740D01*
X511000Y1740D01*
X512000Y1740D01*
X513000Y1740D01*
X514000Y1740D01*
X515000Y1740D01*
X516000Y1740D01*
X517000Y1740D01*
X518000Y1740D01*
X519000Y1740D01*
X520000Y1740D01*
X521000Y1740D01*
X522000Y1740D01*
X523000Y1740D01*
X524000Y1740D01*
X525000Y1740D01*
X526000Y1740D01*
X527000Y1740D01*
X528000Y1740D01*
X529000Y1740D01*
X530000Y1740D01*
X531000Y1740D01*
X532000Y1740D01*
X533000Y1740D01*
X534000Y1740D01*
X535000Y1740D01*
X536000Y1740D01*
X537000Y1740D01*
X538000Y1740D01*
X539000Y1740D01*
X540000Y1740D01*
X541000Y1740D01*
X542000Y1740D01*
X543000Y1740D01*
X544000Y1740D01*
X545000Y1740D01*
X546000Y1740D01*
X547000Y1740D01*
X548000Y1740D01*
X549000Y1740D01*
X550000Y1740D01*
X551000Y1740D01*
X552000Y1740D01*
X553000Y1740D01*
X554000Y1740D01*
X555000Y1740D01*
X556000Y1740D01*
X557000Y1740D01*
X558000Y1740D01*
X559000Y1740D01*
X560000Y1740D01*
X561000Y1740D01*
X562000Y1740D01*
X563000Y1740D01*
X564000Y1740D01*
X565000Y1740D01*
X566000Y1740D01*
X567000Y1740D01*
X568000Y1740D01*
X569000Y1740D01*
X570000Y1740D01*
X571000Y1740D01*
X572000Y1740D01*
X573000Y1740D01*
X574000Y1740D01*
X575000Y1740D01*
X576000Y1740D01*
X577000Y1740D01*
X578000Y1740D01*
X579000Y1740D01*
X580000Y1740D01*
X581000Y1740D01*
X582000Y1740D01*
X583000Y1740D01*
X584000Y1740D01*
X585000Y1740D01*
X586000Y1740D01*
X587000Y1740D01*
X588000Y1740D01*
X589000Y1740D01*
X590000Y1740D01*
X591000Y1740D01*
X592000Y1740D01*
X593000Y1740D01*
X594000Y1740D01*
X595000Y1740D01*
X596000Y1740D01*
X597000Y1740D01*
X598000Y1740D01*
X599000Y1740D01*
X600000Y1740D01*
X601000Y1740D01*
X602000Y1740D01*
X603000Y1740D01*
X604000Y1740D01*
X605000Y1740D01*
X606000Y1740D01*
X607000Y1740D01*
X608000Y1740D01*
X609000Y1740D01*
X610000Y1740D01*
X611000Y1740D01*
X612000Y1740D01*
X613000Y1740D01*
X614000Y1740D01*
X615000Y1740D01*
X616000Y1740D01*
X617000Y1740D01*
X618000Y1740D01*
X619000Y1740D01*
X620000Y1740D01*
X621000Y1740D01*
X622000Y1740D01*
X623000Y1740D01*
X624000Y1740D01*
X625000Y1740D01*
X626000Y1740D01*
X627000Y1740D01*
X628000Y1740D01*
X629000Y1740D01*
X630000Y1740D01*
X631000Y1740D01*
X632000Y1740D01*
X633000Y1740D01*
X634000Y1740D01*
X635000Y1740D01*
X636000Y1740D01*
X637000Y1740D01*
X638000Y1740D01*
X639000Y1740D01*
X640000Y1740D01*
X641000Y1740D01*
X642000Y1740D01*
X643000Y1740D01*
X644000Y1740D01*
X645000Y1740D01*
X646000Y1740D01*
X647000Y1740D01*
X648000Y1740D01*
X649000Y1740D01*
X650000Y1740D01*
X651000Y1740D01*
X652000Y1740D01*
X653000Y1740D01*
X654000Y1740D01*
X655000Y1740D01*
X656000Y1740D01*
X657000Y1740D01*
X658000Y1740D01*
X659000Y1740D01*
X660000Y1740D01*
X661000Y1740D01*
X662000Y1740D01*
X663000Y1740D01*
X664000Y1740D01*
X665000Y1740D01*
X666000Y1740D01*
X667000Y1740D01*
X668000Y1740D01*
X669000Y1740D01*
X670000Y1740D01*
X671000Y1740D01*
X672000Y1740D01*
X673000Y1740D01*
X674000Y1740D01*
X675000Y1740D01*
X676000Y1740D01*
X677000Y1740D01*
X678000Y1740D01*
X679000Y1740D01*
X680000Y1740D01*
X681000Y1740D01*
X682000Y1740D01*
X683000Y1740D01*
X684000Y1740D01*
X685000Y1740D01*
X686000Y1740D01*
X687000Y1740D01*
X688000Y1740D01*
X689000Y1740D01*
X690000Y1740D01*
X691000Y1740D01*
X692000Y1740D01*
X693000Y1740D01*
X694000Y1740D01*
X695000Y1740D01*
X696000Y1740D01*
X697000Y1740D01*
X698000Y1740D01*
X699000Y1740D01*
X700000Y1740D01*
X701000Y1740D01*
X702000Y1740D01*
X703000Y1740D01*
X704000Y1740D01*
X705000Y1740D01*
X706000Y1740D01*
X707000Y1740D01*
X708000Y1740D01*
X709000Y1740D01*
X710000Y1740D01*
X711000Y1740D01*
X712000Y1740D01*
X713000Y1740D01*
X714000Y1740D01*
X715000Y1740D01*
X716000Y1740D01*
X717000Y1740D01*
X718000Y1740D01*
X719000Y1740D01*
X720000Y1740D01*
X721000Y1740D01*
X722000Y1740D01*
X723000Y1740D01*
X724000Y1740D01*
X725000Y1740D01*
X726000Y1740D01*
X727000Y1740D01*
X728000Y1740D01*
X729000Y1740D01*
X730000Y1740D01*
X731000Y1740D01*
X732000Y1740D01*
X733000Y1740D01*
X734000Y1740D01*
X735000Y1740D01*
X736000Y1740D01*
X737000Y1740D01*
X738000Y1740D01*
X739000Y1740D01*
X740000Y1740D01*
X741000Y1740D01*
X742000Y1740D01*
X743000Y1740D01*
X744000Y1740D01*
X745000Y1740D01*
X746000Y1740D01*
X747000Y1740D01*
X748000Y1740D01*
X749000Y1740D01*
X750000Y1740D01*
X751000Y1740D01*
X752000Y1740D01*
X753000Y1740D01*
X754000Y1740D01*
X755000Y1740D01*
X756000Y1740D01*
X757000Y1740D01*
X758000Y1740D01*
X759000Y1740D01*
X760000Y1740D01*
X761000Y1740D01*
X762000Y1740D01*
X763000Y1740D01*
X764000Y1740D01*
X765000Y1740D01*
X766000Y1740D01*
X767000Y1740D01*
X768000Y1740D01*
X769000Y1740D01*
X770000Y1740D01*
X771000Y1740D01*
X772000Y1740D01*
X773000Y1740D01*
X774000Y1740D01*
X775000Y1740D01*
X776000Y1740D01*
X777000Y1740D01*
X778000Y1740D01*
X779000Y1740D01*
X780000Y1740D01*
X781000Y1740D01*
X782000Y1740D01*
X783000Y1740D01*
X784000Y1740D01*
X785000Y1740D01*
X786000Y1740D01*
X786000Y2991740D01*
X785000Y2992740D01*
X785000Y5077740D01*
X784000Y5077740D01*
X783000Y5077740D01*
X782000Y5077740D01*
X781000Y5077740D01*
X780000Y5077740D01*
X779000Y5077740D01*
X778000Y5077740D01*
X777000Y5077740D01*
X776000Y5077740D01*
X775000Y5077740D01*
X774000Y5077740D01*
X773000Y5077740D01*
X772000Y5077740D01*
X771000Y5077740D01*
X770000Y5077740D01*
X769000Y5077740D01*
X768000Y5077740D01*
X767000Y5077740D01*
X766000Y5077740D01*
X765000Y5077740D01*
X764000Y5077740D01*
X763000Y5077740D01*
X762000Y5077740D01*
X761000Y5077740D01*
X760000Y5077740D01*
X759000Y5077740D01*
X758000Y5077740D01*
X757000Y5077740D01*
X756000Y5077740D01*
X755000Y5077740D01*
X754000Y5077740D01*
X753000Y5077740D01*
X752000Y5077740D01*
X751000Y5077740D01*
X750000Y5077740D01*
X749000Y5077740D01*
X748000Y5077740D01*
X747000Y5077740D01*
X746000Y5077740D01*
X745000Y5077740D01*
X744000Y5077740D01*
X743000Y5077740D01*
X742000Y5077740D01*
X741000Y5077740D01*
X740000Y5077740D01*
X739000Y5077740D01*
X738000Y5077740D01*
X737000Y5077740D01*
X736000Y5077740D01*
X735000Y5077740D01*
X734000Y5077740D01*
X733000Y5077740D01*
X732000Y5077740D01*
X731000Y5077740D01*
X730000Y5077740D01*
X729000Y5077740D01*
X728000Y5077740D01*
X727000Y5077740D01*
X726000Y5077740D01*
X725000Y5077740D01*
X724000Y5077740D01*
X723000Y5077740D01*
X722000Y5077740D01*
X721000Y5077740D01*
X720000Y5077740D01*
X719000Y5077740D01*
X718000Y5077740D01*
X717000Y5077740D01*
X716000Y5077740D01*
X715000Y5077740D01*
X714000Y5077740D01*
X713000Y5077740D01*
X712000Y5077740D01*
X711000Y5077740D01*
X710000Y5077740D01*
X709000Y5077740D01*
X708000Y5077740D01*
X707000Y5077740D01*
X706000Y5077740D01*
X705000Y5077740D01*
X704000Y5077740D01*
X703000Y5077740D01*
X702000Y5077740D01*
X701000Y5077740D01*
X700000Y5077740D01*
X699000Y5077740D01*
X698000Y5077740D01*
X697000Y5077740D01*
X696000Y5077740D01*
X695000Y5077740D01*
X694000Y5077740D01*
X693000Y5077740D01*
X692000Y5077740D01*
X691000Y5077740D01*
X690000Y5077740D01*
X689000Y5077740D01*
X688000Y5077740D01*
X687000Y5077740D01*
X686000Y5077740D01*
X685000Y5077740D01*
X684000Y5077740D01*
X683000Y5077740D01*
X682000Y5077740D01*
X681000Y5077740D01*
X680000Y5077740D01*
X679000Y5077740D01*
X678000Y5077740D01*
X677000Y5077740D01*
X676000Y5077740D01*
X675000Y5077740D01*
X674000Y5077740D01*
X673000Y5077740D01*
X672000Y5077740D01*
X671000Y5077740D01*
X670000Y5077740D01*
X669000Y5077740D01*
X668000Y5077740D01*
X667000Y5077740D01*
X666000Y5077740D01*
X665000Y5077740D01*
X664000Y5077740D01*
X663000Y5077740D01*
X662000Y5077740D01*
X661000Y5077740D01*
X660000Y5077740D01*
X659000Y5077740D01*
X658000Y5077740D01*
X657000Y5077740D01*
X656000Y5077740D01*
X655000Y5077740D01*
X654000Y5077740D01*
X653000Y5077740D01*
X652000Y5077740D01*
X651000Y5077740D01*
X650000Y5077740D01*
X649000Y5077740D01*
X648000Y5077740D01*
X647000Y5077740D01*
X646000Y5077740D01*
X645000Y5077740D01*
X644000Y5077740D01*
X643000Y5077740D01*
X642000Y5077740D01*
X641000Y5077740D01*
X640000Y5077740D01*
X639000Y5077740D01*
X638000Y5077740D01*
X637000Y5077740D01*
X636000Y5077740D01*
X635000Y5077740D01*
X634000Y5077740D01*
X633000Y5077740D01*
X632000Y5077740D01*
X631000Y5077740D01*
X630000Y5077740D01*
X629000Y5077740D01*
X628000Y5077740D01*
X627000Y5077740D01*
X626000Y5077740D01*
X625000Y5077740D01*
X624000Y5077740D01*
X623000Y5077740D01*
X622000Y5077740D01*
X621000Y5077740D01*
X620000Y5077740D01*
X619000Y5077740D01*
X618000Y5077740D01*
X617000Y5077740D01*
X616000Y5077740D01*
X615000Y5077740D01*
X614000Y5077740D01*
X613000Y5077740D01*
X612000Y5077740D01*
X611000Y5077740D01*
X610000Y5077740D01*
X609000Y5077740D01*
X608000Y5077740D01*
X607000Y5077740D01*
X606000Y5077740D01*
X605000Y5077740D01*
X604000Y5077740D01*
X603000Y5077740D01*
X602000Y5077740D01*
X601000Y5077740D01*
X600000Y5077740D01*
X599000Y5077740D01*
X598000Y5077740D01*
X597000Y5077740D01*
X596000Y5077740D01*
X595000Y5077740D01*
X594000Y5077740D01*
X593000Y5077740D01*
X592000Y5077740D01*
X591000Y5077740D01*
X590000Y5077740D01*
X589000Y5077740D01*
X588000Y5077740D01*
X587000Y5077740D01*
X586000Y5077740D01*
X585000Y5077740D01*
X584000Y5077740D01*
X583000Y5077740D01*
X582000Y5077740D01*
X581000Y5077740D01*
X580000Y5077740D01*
X579000Y5077740D01*
X578000Y5077740D01*
X577000Y5077740D01*
X576000Y5077740D01*
X575000Y5077740D01*
X574000Y5077740D01*
X573000Y5077740D01*
X572000Y5077740D01*
X571000Y5077740D01*
X570000Y5077740D01*
X569000Y5077740D01*
X568000Y5077740D01*
X567000Y5077740D01*
X566000Y5077740D01*
X565000Y5077740D01*
X564000Y5077740D01*
X563000Y5077740D01*
X562000Y5077740D01*
X561000Y5077740D01*
X560000Y5077740D01*
X559000Y5077740D01*
X558000Y5077740D01*
X557000Y5077740D01*
X556000Y5077740D01*
X555000Y5077740D01*
X554000Y5077740D01*
X553000Y5077740D01*
X552000Y5077740D01*
X551000Y5077740D01*
X550000Y5077740D01*
X549000Y5077740D01*
X548000Y5077740D01*
X547000Y5077740D01*
X546000Y5077740D01*
X545000Y5077740D01*
X544000Y5077740D01*
X543000Y5077740D01*
X542000Y5077740D01*
X541000Y5077740D01*
X540000Y5077740D01*
X539000Y5077740D01*
X538000Y5077740D01*
X537000Y5077740D01*
X536000Y5077740D01*
X535000Y5077740D01*
X534000Y5077740D01*
X533000Y5077740D01*
X532000Y5077740D01*
X531000Y5077740D01*
X530000Y5077740D01*
X529000Y5077740D01*
X528000Y5077740D01*
X527000Y5077740D01*
X526000Y5077740D01*
X525000Y5077740D01*
X524000Y5077740D01*
X523000Y5077740D01*
X522000Y5077740D01*
X521000Y5077740D01*
X520000Y5077740D01*
X519000Y5077740D01*
X518000Y5077740D01*
X517000Y5077740D01*
X516000Y5077740D01*
X515000Y5077740D01*
X514000Y5077740D01*
X513000Y5077740D01*
X512000Y5077740D01*
X511000Y5077740D01*
X510000Y5077740D01*
X509000Y5077740D01*
X508000Y5077740D01*
X507000Y5077740D01*
X506000Y5077740D01*
X505000Y5077740D01*
X504000Y5077740D01*
X503000Y5077740D01*
X502000Y5077740D01*
X501000Y5077740D01*
X500000Y5077740D01*
X499000Y5077740D01*
X498000Y5077740D01*
X497000Y5077740D01*
X496000Y5077740D01*
X495000Y5077740D01*
X494000Y5077740D01*
X493000Y5077740D01*
X492000Y5077740D01*
X491000Y5077740D01*
X490000Y5077740D01*
X489000Y5077740D01*
X488000Y5077740D01*
X487000Y5077740D01*
X486000Y5077740D01*
X485000Y5077740D01*
X484000Y5077740D01*
X483000Y5077740D01*
X482000Y5077740D01*
X481000Y5077740D01*
X480000Y5077740D01*
X479000Y5077740D01*
X478000Y5077740D01*
X477000Y5077740D01*
X476000Y5077740D01*
X475000Y5077740D01*
X474000Y5077740D01*
X473000Y5077740D01*
X472000Y5077740D01*
X471000Y5077740D01*
X470000Y5077740D01*
X469000Y5077740D01*
X468000Y5077740D01*
X467000Y5077740D01*
X466000Y5077740D01*
X465000Y5077740D01*
X464000Y5077740D01*
X463000Y5077740D01*
X462000Y5077740D01*
X461000Y5077740D01*
X460000Y5077740D01*
X459000Y5077740D01*
X458000Y5077740D01*
X457000Y5077740D01*
X456000Y5077740D01*
X455000Y5077740D01*
X454000Y5077740D01*
X453000Y5077740D01*
X452000Y5077740D01*
X451000Y5077740D01*
X450000Y5077740D01*
X449000Y5077740D01*
X448000Y5077740D01*
X447000Y5077740D01*
X446000Y5077740D01*
X445000Y5077740D01*
X444000Y5077740D01*
X443000Y5077740D01*
X442000Y5077740D01*
X441000Y5077740D01*
X440000Y5077740D01*
X439000Y5077740D01*
X438000Y5077740D01*
X437000Y5077740D01*
X436000Y5077740D01*
X435000Y5077740D01*
X434000Y5077740D01*
X433000Y5077740D01*
X432000Y5077740D01*
X431000Y5077740D01*
X430000Y5077740D01*
X429000Y5077740D01*
X428000Y5077740D01*
X427000Y5077740D01*
X426000Y5077740D01*
X425000Y5077740D01*
X424000Y5077740D01*
X423000Y5077740D01*
X422000Y5077740D01*
X421000Y5077740D01*
X420000Y5077740D01*
X419000Y5077740D01*
X418000Y5077740D01*
X417000Y5077740D01*
X416000Y5077740D01*
X415000Y5077740D01*
X414000Y5077740D01*
X413000Y5077740D01*
X412000Y5077740D01*
X411000Y5077740D01*
X410000Y5077740D01*
X409000Y5077740D01*
X408000Y5077740D01*
X407000Y5077740D01*
X406000Y5077740D01*
X405000Y5077740D01*
X404000Y5077740D01*
X403000Y5077740D01*
X402000Y5077740D01*
X401000Y5077740D01*
X400000Y5077740D01*
X399000Y5077740D01*
X398000Y5077740D01*
X397000Y5077740D01*
X396000Y5077740D01*
X395000Y5077740D01*
X394000Y5077740D01*
X393000Y5077740D01*
X392000Y5077740D01*
X391000Y5077740D01*
X390000Y5077740D01*
X389000Y5077740D01*
X388000Y5077740D01*
X387000Y5077740D01*
X386000Y5077740D01*
X385000Y5077740D01*
X384000Y5077740D01*
X383000Y5077740D01*
X382000Y5077740D01*
X381000Y5077740D01*
X380000Y5077740D01*
X379000Y5077740D01*
X378000Y5077740D01*
X377000Y5077740D01*
X376000Y5077740D01*
X375000Y5077740D01*
X374000Y5077740D01*
X373000Y5077740D01*
X372000Y5077740D01*
X371000Y5077740D01*
X370000Y5077740D01*
X369000Y5077740D01*
X368000Y5077740D01*
X367000Y5077740D01*
X366000Y5077740D01*
X365000Y5077740D01*
X364000Y5077740D01*
X363000Y5077740D01*
X362000Y5077740D01*
X361000Y5078740D01*
X360000Y5078740D01*
X359000Y5078740D01*
X358000Y5078740D01*
X357000Y5078740D01*
X356000Y5078740D01*
X355000Y5078740D01*
X354000Y5078740D01*
X353000Y5078740D01*
X352000Y5078740D01*
X351000Y5078740D01*
X350000Y5078740D01*
X349000Y5078740D01*
X348000Y5078740D01*
X347000Y5078740D01*
X346000Y5078740D01*
X345000Y5078740D01*
X344000Y5078740D01*
X343000Y5078740D01*
X342000Y5078740D01*
X341000Y5078740D01*
X340000Y5078740D01*
X339000Y5078740D01*
X338000Y5078740D01*
X337000Y5078740D01*
X336000Y5078740D01*
X335000Y5078740D01*
X334000Y5078740D01*
X333000Y5078740D01*
X332000Y5078740D01*
X331000Y5078740D01*
X330000Y5078740D01*
X329000Y5078740D01*
X328000Y5078740D01*
X327000Y5078740D01*
X326000Y5078740D01*
X325000Y5078740D01*
X324000Y5078740D01*
X323000Y5078740D01*
X322000Y5078740D01*
X321000Y5078740D01*
X320000Y5078740D01*
X319000Y5078740D01*
X318000Y5078740D01*
X317000Y5078740D01*
X316000Y5078740D01*
X315000Y5078740D01*
X314000Y5078740D01*
X313000Y5078740D01*
X312000Y5078740D01*
X311000Y5078740D01*
X310000Y5078740D01*
X309000Y5078740D01*
X308000Y5078740D01*
X307000Y5078740D01*
X306000Y5078740D01*
X305000Y5078740D01*
X304000Y5078740D01*
X303000Y5078740D01*
X302000Y5078740D01*
X301000Y5078740D01*
X300000Y5078740D01*
X299000Y5078740D01*
X298000Y5078740D01*
X297000Y5078740D01*
X296000Y5078740D01*
X295000Y5078740D01*
X294000Y5078740D01*
X293000Y5078740D01*
X292000Y5078740D01*
X291000Y5078740D01*
X290000Y5078740D01*
X289000Y5078740D01*
X288000Y5078740D01*
X287000Y5078740D01*
X286000Y5078740D01*
X285000Y5078740D01*
X284000Y5078740D01*
X283000Y5078740D01*
X282000Y5078740D01*
X281000Y5078740D01*
X280000Y5078740D01*
X279000Y5078740D01*
X278000Y5078740D01*
X277000Y5078740D01*
X276000Y5078740D01*
X275000Y5078740D01*
X274000Y5078740D01*
X273000Y5078740D01*
X272000Y5078740D01*
X271000Y5078740D01*
X270000Y5078740D01*
X269000Y5078740D01*
X268000Y5078740D01*
X267000Y5078740D01*
X266000Y5078740D01*
X265000Y5078740D01*
X264000Y5078740D01*
X263000Y5078740D01*
X262000Y5078740D01*
X261000Y5078740D01*
X260000Y5078740D01*
X259000Y5078740D01*
X258000Y5078740D01*
X257000Y5078740D01*
X256000Y5078740D01*
X255000Y5078740D01*
X254000Y5078740D01*
X253000Y5078740D01*
X252000Y5078740D01*
X251000Y5078740D01*
X250000Y5078740D01*
X249000Y5078740D01*
X248000Y5078740D01*
X247000Y5078740D01*
X246000Y5078740D01*
X245000Y5078740D01*
X244000Y5078740D01*
X243000Y5078740D01*
X242000Y5078740D01*
X241000Y5078740D01*
X240000Y5078740D01*
X239000Y5078740D01*
X238000Y5078740D01*
X237000Y5078740D01*
X236000Y5078740D01*
X235000Y5078740D01*
X234000Y5078740D01*
X233000Y5078740D01*
X232000Y5078740D01*
X231000Y5078740D01*
X230000Y5078740D01*
X229000Y5078740D01*
X228000Y5078740D01*
X227000Y5078740D01*
X226000Y5078740D01*
X225000Y5078740D01*
X224000Y5078740D01*
X223000Y5078740D01*
X222000Y5078740D01*
X221000Y5078740D01*
X220000Y5078740D01*
X219000Y5078740D01*
X218000Y5078740D01*
X217000Y5078740D01*
X216000Y5078740D01*
X215000Y5078740D01*
X214000Y5078740D01*
X213000Y5078740D01*
X212000Y5078740D01*
X211000Y5078740D01*
X210000Y5078740D01*
X209000Y5078740D01*
X208000Y5078740D01*
X207000Y5078740D01*
X206000Y5078740D01*
X205000Y5078740D01*
X204000Y5078740D01*
X203000Y5078740D01*
X202000Y5078740D01*
X201000Y5078740D01*
X200000Y5078740D01*
X199000Y5078740D01*
X198000Y5078740D01*
X197000Y5078740D01*
X196000Y5078740D01*
X195000Y5078740D01*
X194000Y5078740D01*
X193000Y5078740D01*
X192000Y5078740D01*
X191000Y5078740D01*
X190000Y5078740D01*
X189000Y5078740D01*
X188000Y5078740D01*
X187000Y5078740D01*
X186000Y5078740D01*
X185000Y5078740D01*
X184000Y5078740D01*
X183000Y5078740D01*
X182000Y5078740D01*
X181000Y5078740D01*
X180000Y5078740D01*
X179000Y5078740D01*
X178000Y5078740D01*
X177000Y5078740D01*
X176000Y5078740D01*
X175000Y5078740D01*
X174000Y5078740D01*
X173000Y5078740D01*
X172000Y5078740D01*
X171000Y5078740D01*
X170000Y5078740D01*
X169000Y5078740D01*
X168000Y5078740D01*
X167000Y5078740D01*
X166000Y5078740D01*
X165000Y5078740D01*
X164000Y5078740D01*
X163000Y5078740D01*
X162000Y5078740D01*
X161000Y5078740D01*
X160000Y5078740D01*
X159000Y5078740D01*
X158000Y5078740D01*
X157000Y5078740D01*
X156000Y5078740D01*
X155000Y5078740D01*
X154000Y5078740D01*
X153000Y5078740D01*
X152000Y5078740D01*
X151000Y5078740D01*
X150000Y5078740D01*
X149000Y5078740D01*
X148000Y5078740D01*
X147000Y5078740D01*
X146000Y5078740D01*
X145000Y5078740D01*
X144000Y5078740D01*
X143000Y5078740D01*
X142000Y5078740D01*
X141000Y5078740D01*
X140000Y5078740D01*
X139000Y5078740D01*
X138000Y5078740D01*
X137000Y5078740D01*
X136000Y5078740D01*
X135000Y5078740D01*
X134000Y5078740D01*
X133000Y5078740D01*
X132000Y5078740D01*
X131000Y5078740D01*
X130000Y5078740D01*
X129000Y5078740D01*
X128000Y5078740D01*
X127000Y5078740D01*
X126000Y5078740D01*
X125000Y5078740D01*
X124000Y5078740D01*
X123000Y5078740D01*
X122000Y5078740D01*
X121000Y5078740D01*
X120000Y5078740D01*
X119000Y5078740D01*
X118000Y5078740D01*
X117000Y5078740D01*
X116000Y5078740D01*
X115000Y5078740D01*
X114000Y5078740D01*
X113000Y5078740D01*
X112000Y5078740D01*
X111000Y5078740D01*
X110000Y5078740D01*
X109000Y5078740D01*
X108000Y5078740D01*
X107000Y5078740D01*
X106000Y5078740D01*
X105000Y5078740D01*
X104000Y5078740D01*
X103000Y5078740D01*
X102000Y5078740D01*
X101000Y5078740D01*
X100000Y5078740D01*
X99000Y5078740D01*
X98000Y5078740D01*
X97000Y5078740D01*
X96000Y5078740D01*
X95000Y5078740D01*
X94000Y5078740D01*
X93000Y5078740D01*
X92000Y5078740D01*
X91000Y5078740D01*
X90000Y5078740D01*
X89000Y5078740D01*
X88000Y5078740D01*
X87000Y5078740D01*
X86000Y5078740D01*
X85000Y5078740D01*
X84000Y5078740D01*
X83000Y5078740D01*
X82000Y5078740D01*
X81000Y5078740D01*
X80000Y5078740D01*
X79000Y5078740D01*
X78000Y5078740D01*
X77000Y5078740D01*
X76000Y5078740D01*
X75000Y5078740D01*
X74000Y5078740D01*
X73000Y5078740D01*
X72000Y5078740D01*
X71000Y5078740D01*
X70000Y5078740D01*
X69000Y5078740D01*
X68000Y5078740D01*
X67000Y5078740D01*
X66000Y5078740D01*
X65000Y5078740D01*
X64000Y5078740D01*
X63000Y5078740D01*
X62000Y5078740D01*
X61000Y5078740D01*
X60000Y5078740D01*
X59000Y5078740D01*
X58000Y5078740D01*
X57000Y5078740D01*
X56000Y5078740D01*
X55000Y5078740D01*
X54000Y5078740D01*
X53000Y5078740D01*
X52000Y5078740D01*
X51000Y5078740D01*
X50000Y5078740D01*
X49000Y5078740D01*
X48000Y5078740D01*
X47000Y5078740D01*
X46000Y5078740D01*
X45000Y5078740D01*
X44000Y5078740D01*
X43000Y5078740D01*
X42000Y5078740D01*
X41000Y5078740D01*
X40000Y5078740D01*
X39000Y5078740D01*
X38000Y5078740D01*
X37000Y5078740D01*
X36000Y5078740D01*
X35000Y5078740D01*
X34000Y5078740D01*
X33000Y5078740D01*
X32000Y5078740D01*
X31000Y5078740D01*
X30000Y5078740D01*
X29000Y5078740D01*
X28000Y5078740D01*
X27000Y5078740D01*
X26000Y5078740D01*
X25000Y5078740D01*
X24000Y5078740D01*
X23000Y5078740D01*
X22000Y5078740D01*
X21000Y5078740D01*
X20000Y5078740D01*
X19000Y5078740D01*
X18000Y5078740D01*
X17000Y5078740D01*
X16000Y5078740D01*
X15000Y5078740D01*
X14000Y5078740D01*
X13000Y5078740D01*
X12000Y5078740D01*
X11000Y5078740D01*
X10000Y5078740D01*
X9000Y5078740D01*
X8000Y5078740D01*
X7000Y5078740D01*
X6000Y5078740D01*
X5000Y5078740D01*
X4000Y5078740D01*
X3000Y5078740D01*
X2000Y5078740D01*
X1000Y5078740D01*
X0Y5078740D01*
D02*
X265000Y5028740D02*
X266000Y5028740D01*
X267000Y5028740D01*
X268000Y5028740D01*
X269000Y5028740D01*
X270000Y5028740D01*
X271000Y5028740D01*
X272000Y5028740D01*
X273000Y5028740D01*
X274000Y5028740D01*
X275000Y5028740D01*
X276000Y5028740D01*
X277000Y5028740D01*
X278000Y5028740D01*
X279000Y5028740D01*
X280000Y5028740D01*
X281000Y5028740D01*
X282000Y5028740D01*
X283000Y5028740D01*
X284000Y5028740D01*
X285000Y5028740D01*
X286000Y5028740D01*
X287000Y5028740D01*
X288000Y5028740D01*
X289000Y5028740D01*
X290000Y5028740D01*
X291000Y5028740D01*
X292000Y5028740D01*
X293000Y5028740D01*
X294000Y5028740D01*
X295000Y5028740D01*
X296000Y5028740D01*
X297000Y5028740D01*
X298000Y5028740D01*
X299000Y5028740D01*
X300000Y5028740D01*
X301000Y5028740D01*
X302000Y5028740D01*
X303000Y5028740D01*
X304000Y5028740D01*
X305000Y5028740D01*
X306000Y5028740D01*
X307000Y5028740D01*
X308000Y5028740D01*
X309000Y5028740D01*
X310000Y5028740D01*
X311000Y5028740D01*
X312000Y5028740D01*
X313000Y5028740D01*
X314000Y5028740D01*
X315000Y5028740D01*
X316000Y5028740D01*
X317000Y5028740D01*
X318000Y5028740D01*
X319000Y5028740D01*
X320000Y5028740D01*
X321000Y5028740D01*
X322000Y5028740D01*
X323000Y5028740D01*
X324000Y5028740D01*
X325000Y5028740D01*
X326000Y5028740D01*
X327000Y5028740D01*
X328000Y5028740D01*
X329000Y5028740D01*
X330000Y5028740D01*
X331000Y5028740D01*
X332000Y5028740D01*
X333000Y5028740D01*
X334000Y5028740D01*
X335000Y5028740D01*
X336000Y5028740D01*
X337000Y5028740D01*
X338000Y5028740D01*
X339000Y5028740D01*
X340000Y5028740D01*
X341000Y5028740D01*
X342000Y5028740D01*
X343000Y5028740D01*
X344000Y5028740D01*
X345000Y5028740D01*
X346000Y5028740D01*
X347000Y5028740D01*
X348000Y5028740D01*
X349000Y5028740D01*
X350000Y5028740D01*
X351000Y5028740D01*
X352000Y5028740D01*
X353000Y5028740D01*
X354000Y5028740D01*
X355000Y5028740D01*
X356000Y5028740D01*
X357000Y5028740D01*
X358000Y5028740D01*
X359000Y5028740D01*
X360000Y5028740D01*
X361000Y5028740D01*
X362000Y5028740D01*
X363000Y5028740D01*
X364000Y5028740D01*
X365000Y5028740D01*
X366000Y5028740D01*
X367000Y5028740D01*
X368000Y5028740D01*
X369000Y5028740D01*
X370000Y5028740D01*
X371000Y5028740D01*
X372000Y5028740D01*
X373000Y5028740D01*
X374000Y5028740D01*
X375000Y5028740D01*
X376000Y5028740D01*
X377000Y5028740D01*
X378000Y5028740D01*
X379000Y5028740D01*
X380000Y5028740D01*
X381000Y5028740D01*
X382000Y5028740D01*
X383000Y5028740D01*
X384000Y5028740D01*
X385000Y5028740D01*
X386000Y5028740D01*
X387000Y5028740D01*
X388000Y5028740D01*
X389000Y5028740D01*
X390000Y5028740D01*
X391000Y5028740D01*
X392000Y5028740D01*
X393000Y5028740D01*
X394000Y5028740D01*
X395000Y5028740D01*
X396000Y5027740D01*
X397000Y5027740D01*
X398000Y5027740D01*
X399000Y5027740D01*
X400000Y5027740D01*
X401000Y5027740D01*
X402000Y5027740D01*
X403000Y5027740D01*
X404000Y5027740D01*
X405000Y5027740D01*
X406000Y5027740D01*
X407000Y5027740D01*
X408000Y5026740D01*
X409000Y5026740D01*
X410000Y5026740D01*
X411000Y5026740D01*
X412000Y5026740D01*
X413000Y5026740D01*
X414000Y5025740D01*
X415000Y5025740D01*
X416000Y5025740D01*
X417000Y5025740D01*
X418000Y5025740D01*
X419000Y5024740D01*
X420000Y5024740D01*
X421000Y5024740D01*
X422000Y5024740D01*
X423000Y5024740D01*
X424000Y5023740D01*
X425000Y5023740D01*
X426000Y5023740D01*
X427000Y5022740D01*
X428000Y5022740D01*
X429000Y5022740D01*
X430000Y5021740D01*
X431000Y5021740D01*
X432000Y5021740D01*
X433000Y5020740D01*
X434000Y5020740D01*
X435000Y5019740D01*
X436000Y5019740D01*
X437000Y5019740D01*
X438000Y5018740D01*
X439000Y5018740D01*
X440000Y5017740D01*
X441000Y5016740D01*
X442000Y5016740D01*
X443000Y5015740D01*
X444000Y5015740D01*
X445000Y5014740D01*
X446000Y5013740D01*
X447000Y5012740D01*
X448000Y5012740D01*
X449000Y5011740D01*
X450000Y5010740D01*
X451000Y5009740D01*
X452000Y5008740D01*
X453000Y5007740D01*
X454000Y5006740D01*
X455000Y5005740D01*
X456000Y5004740D01*
X456000Y5003740D01*
X457000Y5002740D01*
X458000Y5001740D01*
X459000Y5000740D01*
X459000Y4999740D01*
X460000Y4998740D01*
X460000Y4997740D01*
X461000Y4996740D01*
X461000Y4995740D01*
X462000Y4994740D01*
X462000Y4993740D01*
X463000Y4992740D01*
X463000Y4990740D01*
X464000Y4989740D01*
X464000Y4987740D01*
X465000Y4986740D01*
X465000Y4983740D01*
X466000Y4982740D01*
X466000Y4978740D01*
X467000Y4977740D01*
X467000Y4965740D01*
X468000Y4964740D01*
X467000Y4963740D01*
X467000Y4950740D01*
X466000Y4949740D01*
X466000Y4945740D01*
X465000Y4944740D01*
X465000Y4941740D01*
X464000Y4940740D01*
X464000Y4938740D01*
X463000Y4937740D01*
X463000Y4935740D01*
X462000Y4934740D01*
X462000Y4933740D01*
X461000Y4932740D01*
X461000Y4931740D01*
X460000Y4930740D01*
X460000Y4929740D01*
X459000Y4928740D01*
X459000Y4927740D01*
X458000Y4926740D01*
X458000Y4925740D01*
X457000Y4924740D01*
X456000Y4923740D01*
X456000Y4922740D01*
X455000Y4921740D01*
X454000Y4920740D01*
X453000Y4919740D01*
X452000Y4918740D01*
X451000Y4917740D01*
X450000Y4916740D01*
X449000Y4915740D01*
X448000Y4914740D01*
X447000Y4913740D01*
X446000Y4912740D01*
X445000Y4912740D01*
X444000Y4911740D01*
X443000Y4910740D01*
X442000Y4910740D01*
X441000Y4909740D01*
X440000Y4909740D01*
X439000Y4908740D01*
X438000Y4908740D01*
X437000Y4907740D01*
X436000Y4907740D01*
X435000Y4906740D01*
X434000Y4906740D01*
X433000Y4905740D01*
X432000Y4905740D01*
X431000Y4905740D01*
X430000Y4904740D01*
X429000Y4904740D01*
X428000Y4904740D01*
X427000Y4904740D01*
X426000Y4903740D01*
X425000Y4903740D01*
X424000Y4903740D01*
X423000Y4903740D01*
X422000Y4902740D01*
X421000Y4902740D01*
X420000Y4902740D01*
X419000Y4902740D01*
X418000Y4902740D01*
X417000Y4902740D01*
X416000Y4902740D01*
X415000Y4901740D01*
X414000Y4901740D01*
X413000Y4901740D01*
X412000Y4901740D01*
X411000Y4901740D01*
X410000Y4901740D01*
X409000Y4901740D01*
X408000Y4901740D01*
X407000Y4901740D01*
X406000Y4901740D01*
X405000Y4901740D01*
X404000Y4901740D01*
X403000Y4901740D01*
X402000Y4901740D01*
X401000Y4901740D01*
X400000Y4901740D01*
X399000Y4901740D01*
X398000Y4901740D01*
X397000Y4901740D01*
X396000Y4901740D01*
X395000Y4901740D01*
X394000Y4901740D01*
X393000Y4901740D01*
X392000Y4901740D01*
X391000Y4901740D01*
X390000Y4901740D01*
X389000Y4901740D01*
X388000Y4901740D01*
X387000Y4901740D01*
X386000Y4901740D01*
X385000Y4901740D01*
X384000Y4901740D01*
X383000Y4901740D01*
X382000Y4901740D01*
X381000Y4901740D01*
X380000Y4901740D01*
X379000Y4901740D01*
X378000Y4901740D01*
X377000Y4901740D01*
X376000Y4901740D01*
X375000Y4901740D01*
X374000Y4901740D01*
X373000Y4901740D01*
X372000Y4901740D01*
X371000Y4901740D01*
X370000Y4901740D01*
X369000Y4901740D01*
X368000Y4901740D01*
X367000Y4901740D01*
X366000Y4901740D01*
X365000Y4901740D01*
X364000Y4901740D01*
X363000Y4901740D01*
X362000Y4901740D01*
X361000Y4901740D01*
X360000Y4901740D01*
X359000Y4901740D01*
X358000Y4901740D01*
X357000Y4901740D01*
X356000Y4901740D01*
X355000Y4901740D01*
X354000Y4901740D01*
X353000Y4901740D01*
X352000Y4901740D01*
X351000Y4901740D01*
X350000Y4901740D01*
X349000Y4901740D01*
X348000Y4901740D01*
X347000Y4901740D01*
X346000Y4901740D01*
X345000Y4901740D01*
X344000Y4901740D01*
X343000Y4901740D01*
X342000Y4901740D01*
X341000Y4901740D01*
X340000Y4901740D01*
X339000Y4901740D01*
X338000Y4901740D01*
X337000Y4901740D01*
X336000Y4901740D01*
X335000Y4901740D01*
X334000Y4901740D01*
X333000Y4901740D01*
X332000Y4901740D01*
X331000Y4901740D01*
X330000Y4901740D01*
X329000Y4901740D01*
X328000Y4901740D01*
X327000Y4901740D01*
X326000Y4901740D01*
X325000Y4901740D01*
X324000Y4901740D01*
X323000Y4901740D01*
X322000Y4901740D01*
X321000Y4901740D01*
X320000Y4901740D01*
X319000Y4901740D01*
X318000Y4901740D01*
X317000Y4901740D01*
X316000Y4901740D01*
X315000Y4901740D01*
X314000Y4901740D01*
X313000Y4901740D01*
X312000Y4901740D01*
X311000Y4901740D01*
X310000Y4901740D01*
X309000Y4901740D01*
X308000Y4901740D01*
X307000Y4901740D01*
X306000Y4901740D01*
X305000Y4901740D01*
X304000Y4901740D01*
X303000Y4901740D01*
X302000Y4901740D01*
X301000Y4901740D01*
X300000Y4901740D01*
X299000Y4901740D01*
X298000Y4901740D01*
X297000Y4901740D01*
X296000Y4901740D01*
X295000Y4901740D01*
X294000Y4901740D01*
X293000Y4901740D01*
X292000Y4901740D01*
X291000Y4901740D01*
X290000Y4901740D01*
X289000Y4901740D01*
X288000Y4901740D01*
X287000Y4901740D01*
X286000Y4901740D01*
X285000Y4901740D01*
X284000Y4901740D01*
X283000Y4901740D01*
X282000Y4901740D01*
X281000Y4901740D01*
X280000Y4901740D01*
X279000Y4901740D01*
X278000Y4901740D01*
X277000Y4901740D01*
X276000Y4901740D01*
X275000Y4901740D01*
X274000Y4901740D01*
X273000Y4901740D01*
X272000Y4901740D01*
X271000Y4902740D01*
X270000Y4902740D01*
X269000Y4902740D01*
X268000Y4902740D01*
X267000Y4902740D01*
X266000Y4902740D01*
X265000Y4902740D01*
X264000Y4902740D01*
X263000Y4902740D01*
X262000Y4902740D01*
X261000Y4902740D01*
X260000Y4902740D01*
X259000Y4902740D01*
X258000Y4902740D01*
X257000Y4902740D01*
X256000Y4902740D01*
X255000Y4903740D01*
X254000Y4903740D01*
X253000Y4903740D01*
X252000Y4903740D01*
X251000Y4903740D01*
X250000Y4903740D01*
X249000Y4904740D01*
X248000Y4904740D01*
X247000Y4904740D01*
X246000Y4904740D01*
X245000Y4904740D01*
X244000Y4904740D01*
X243000Y4905740D01*
X242000Y4905740D01*
X241000Y4905740D01*
X240000Y4906740D01*
X239000Y4906740D01*
X238000Y4906740D01*
X237000Y4906740D01*
X236000Y4907740D01*
X235000Y4907740D01*
X234000Y4907740D01*
X233000Y4908740D01*
X232000Y4908740D01*
X231000Y4909740D01*
X230000Y4909740D01*
X229000Y4909740D01*
X228000Y4910740D01*
X227000Y4910740D01*
X226000Y4911740D01*
X225000Y4911740D01*
X224000Y4912740D01*
X223000Y4913740D01*
X222000Y4913740D01*
X221000Y4914740D01*
X220000Y4914740D01*
X219000Y4915740D01*
X218000Y4916740D01*
X217000Y4917740D01*
X216000Y4918740D01*
X215000Y4918740D01*
X214000Y4919740D01*
X213000Y4920740D01*
X212000Y4921740D01*
X211000Y4922740D01*
X210000Y4923740D01*
X210000Y4924740D01*
X209000Y4925740D01*
X208000Y4926740D01*
X208000Y4927740D01*
X207000Y4928740D01*
X206000Y4929740D01*
X206000Y4930740D01*
X205000Y4931740D01*
X205000Y4932740D01*
X204000Y4933740D01*
X204000Y4934740D01*
X203000Y4935740D01*
X203000Y4936740D01*
X202000Y4937740D01*
X202000Y4939740D01*
X201000Y4940740D01*
X201000Y4943740D01*
X200000Y4944740D01*
X200000Y4947740D01*
X199000Y4948740D01*
X199000Y4952740D01*
X198000Y4953740D01*
X198000Y4974740D01*
X199000Y4975740D01*
X199000Y4981740D01*
X200000Y4982740D01*
X200000Y4985740D01*
X201000Y4986740D01*
X201000Y4988740D01*
X202000Y4989740D01*
X202000Y4991740D01*
X203000Y4992740D01*
X203000Y4993740D01*
X204000Y4994740D01*
X204000Y4995740D01*
X205000Y4996740D01*
X205000Y4997740D01*
X206000Y4998740D01*
X206000Y4999740D01*
X207000Y5000740D01*
X208000Y5001740D01*
X208000Y5002740D01*
X209000Y5003740D01*
X210000Y5004740D01*
X211000Y5005740D01*
X212000Y5006740D01*
X213000Y5007740D01*
X213000Y5008740D01*
X214000Y5009740D01*
X215000Y5010740D01*
X216000Y5010740D01*
X217000Y5011740D01*
X218000Y5012740D01*
X219000Y5013740D01*
X220000Y5014740D01*
X221000Y5014740D01*
X222000Y5015740D01*
X223000Y5016740D01*
X224000Y5016740D01*
X225000Y5017740D01*
X226000Y5017740D01*
X227000Y5018740D01*
X228000Y5018740D01*
X229000Y5019740D01*
X230000Y5019740D01*
X231000Y5020740D01*
X232000Y5020740D01*
X233000Y5021740D01*
X234000Y5021740D01*
X235000Y5022740D01*
X236000Y5022740D01*
X237000Y5022740D01*
X238000Y5023740D01*
X239000Y5023740D01*
X240000Y5023740D01*
X241000Y5024740D01*
X242000Y5024740D01*
X243000Y5024740D01*
X244000Y5024740D01*
X245000Y5025740D01*
X246000Y5025740D01*
X247000Y5025740D01*
X248000Y5025740D01*
X249000Y5025740D01*
X250000Y5026740D01*
X251000Y5026740D01*
X252000Y5026740D01*
X253000Y5026740D01*
X254000Y5026740D01*
X255000Y5027740D01*
X256000Y5027740D01*
X257000Y5027740D01*
X258000Y5027740D01*
X259000Y5027740D01*
X260000Y5027740D01*
X261000Y5027740D01*
X262000Y5027740D01*
X263000Y5027740D01*
X264000Y5027740D01*
X265000Y5028740D01*
D02*
X469000Y205740D02*
X470000Y205740D01*
X471000Y205740D01*
X472000Y205740D01*
X473000Y205740D01*
X474000Y205740D01*
X475000Y205740D01*
X476000Y205740D01*
X477000Y205740D01*
X478000Y205740D01*
X479000Y205740D01*
X480000Y205740D01*
X481000Y205740D01*
X482000Y205740D01*
X483000Y205740D01*
X484000Y205740D01*
X485000Y205740D01*
X486000Y205740D01*
X487000Y205740D01*
X488000Y205740D01*
X489000Y205740D01*
X490000Y205740D01*
X491000Y205740D01*
X492000Y205740D01*
X493000Y205740D01*
X494000Y205740D01*
X495000Y205740D01*
X496000Y205740D01*
X497000Y205740D01*
X498000Y205740D01*
X499000Y205740D01*
X500000Y205740D01*
X501000Y205740D01*
X502000Y205740D01*
X503000Y205740D01*
X504000Y205740D01*
X505000Y205740D01*
X506000Y205740D01*
X507000Y205740D01*
X508000Y205740D01*
X509000Y205740D01*
X510000Y205740D01*
X511000Y205740D01*
X512000Y205740D01*
X513000Y205740D01*
X514000Y205740D01*
X515000Y205740D01*
X516000Y205740D01*
X517000Y205740D01*
X518000Y205740D01*
X519000Y205740D01*
X520000Y205740D01*
X521000Y205740D01*
X522000Y205740D01*
X523000Y205740D01*
X524000Y205740D01*
X525000Y205740D01*
X526000Y205740D01*
X527000Y205740D01*
X528000Y205740D01*
X529000Y205740D01*
X530000Y205740D01*
X531000Y205740D01*
X532000Y205740D01*
X533000Y205740D01*
X534000Y205740D01*
X535000Y205740D01*
X536000Y205740D01*
X537000Y205740D01*
X538000Y205740D01*
X539000Y205740D01*
X540000Y205740D01*
X541000Y205740D01*
X542000Y205740D01*
X543000Y205740D01*
X544000Y205740D01*
X545000Y205740D01*
X546000Y205740D01*
X547000Y205740D01*
X548000Y205740D01*
X549000Y205740D01*
X550000Y205740D01*
X551000Y205740D01*
X552000Y205740D01*
X553000Y205740D01*
X554000Y205740D01*
X555000Y205740D01*
X556000Y205740D01*
X557000Y205740D01*
X558000Y205740D01*
X559000Y205740D01*
X560000Y205740D01*
X561000Y205740D01*
X562000Y205740D01*
X563000Y205740D01*
X564000Y205740D01*
X565000Y205740D01*
X566000Y205740D01*
X567000Y205740D01*
X568000Y205740D01*
X569000Y205740D01*
X570000Y205740D01*
X571000Y205740D01*
X572000Y205740D01*
X573000Y205740D01*
X574000Y205740D01*
X575000Y205740D01*
X576000Y205740D01*
X577000Y205740D01*
X578000Y205740D01*
X579000Y205740D01*
X580000Y205740D01*
X581000Y205740D01*
X582000Y205740D01*
X583000Y205740D01*
X584000Y205740D01*
X585000Y205740D01*
X586000Y205740D01*
X587000Y205740D01*
X588000Y205740D01*
X589000Y205740D01*
X590000Y205740D01*
X591000Y205740D01*
X592000Y205740D01*
X593000Y205740D01*
X594000Y205740D01*
X595000Y205740D01*
X596000Y205740D01*
X597000Y205740D01*
X598000Y205740D01*
X599000Y205740D01*
X600000Y205740D01*
X601000Y205740D01*
X602000Y205740D01*
X603000Y205740D01*
X604000Y204740D01*
X605000Y204740D01*
X606000Y204740D01*
X607000Y204740D01*
X608000Y204740D01*
X609000Y204740D01*
X610000Y204740D01*
X611000Y204740D01*
X612000Y204740D01*
X613000Y204740D01*
X614000Y204740D01*
X615000Y204740D01*
X616000Y203740D01*
X617000Y203740D01*
X618000Y203740D01*
X619000Y203740D01*
X620000Y203740D01*
X621000Y202740D01*
X622000Y202740D01*
X623000Y202740D01*
X624000Y202740D01*
X625000Y202740D01*
X626000Y201740D01*
X627000Y201740D01*
X628000Y201740D01*
X629000Y201740D01*
X630000Y201740D01*
X631000Y200740D01*
X632000Y200740D01*
X633000Y200740D01*
X634000Y199740D01*
X635000Y199740D01*
X636000Y199740D01*
X637000Y198740D01*
X638000Y198740D01*
X639000Y198740D01*
X640000Y197740D01*
X641000Y197740D01*
X642000Y196740D01*
X643000Y196740D01*
X644000Y195740D01*
X645000Y195740D01*
X646000Y194740D01*
X647000Y194740D01*
X648000Y193740D01*
X649000Y193740D01*
X650000Y192740D01*
X651000Y191740D01*
X652000Y190740D01*
X653000Y190740D01*
X654000Y189740D01*
X655000Y188740D01*
X656000Y187740D01*
X657000Y186740D01*
X658000Y185740D01*
X659000Y184740D01*
X660000Y183740D01*
X661000Y182740D01*
X662000Y181740D01*
X663000Y180740D01*
X663000Y179740D01*
X664000Y178740D01*
X665000Y177740D01*
X665000Y176740D01*
X666000Y175740D01*
X666000Y174740D01*
X667000Y173740D01*
X667000Y172740D01*
X668000Y171740D01*
X668000Y170740D01*
X669000Y169740D01*
X669000Y168740D01*
X670000Y167740D01*
X670000Y165740D01*
X671000Y164740D01*
X671000Y161740D01*
X672000Y160740D01*
X672000Y156740D01*
X673000Y155740D01*
X673000Y146740D01*
X674000Y145740D01*
X674000Y139740D01*
X673000Y138740D01*
X673000Y126740D01*
X672000Y125740D01*
X672000Y121740D01*
X671000Y120740D01*
X671000Y118740D01*
X670000Y117740D01*
X670000Y114740D01*
X669000Y113740D01*
X669000Y112740D01*
X668000Y111740D01*
X668000Y109740D01*
X667000Y108740D01*
X667000Y107740D01*
X666000Y106740D01*
X665000Y105740D01*
X665000Y104740D01*
X664000Y103740D01*
X664000Y102740D01*
X663000Y101740D01*
X662000Y100740D01*
X662000Y99740D01*
X661000Y98740D01*
X660000Y97740D01*
X659000Y96740D01*
X658000Y95740D01*
X657000Y94740D01*
X656000Y93740D01*
X655000Y92740D01*
X654000Y91740D01*
X653000Y90740D01*
X652000Y89740D01*
X651000Y89740D01*
X650000Y88740D01*
X649000Y87740D01*
X648000Y87740D01*
X647000Y86740D01*
X646000Y86740D01*
X645000Y85740D01*
X644000Y85740D01*
X643000Y84740D01*
X642000Y84740D01*
X641000Y83740D01*
X640000Y83740D01*
X639000Y83740D01*
X638000Y82740D01*
X637000Y82740D01*
X636000Y82740D01*
X635000Y81740D01*
X634000Y81740D01*
X633000Y81740D01*
X632000Y81740D01*
X631000Y80740D01*
X630000Y80740D01*
X629000Y80740D01*
X628000Y80740D01*
X627000Y79740D01*
X626000Y79740D01*
X625000Y79740D01*
X624000Y79740D01*
X623000Y79740D01*
X622000Y79740D01*
X621000Y79740D01*
X620000Y79740D01*
X619000Y78740D01*
X618000Y78740D01*
X617000Y78740D01*
X616000Y78740D01*
X615000Y78740D01*
X614000Y78740D01*
X613000Y78740D01*
X612000Y78740D01*
X611000Y78740D01*
X610000Y78740D01*
X609000Y78740D01*
X608000Y78740D01*
X607000Y78740D01*
X606000Y78740D01*
X605000Y78740D01*
X604000Y78740D01*
X603000Y78740D01*
X602000Y78740D01*
X601000Y78740D01*
X600000Y78740D01*
X599000Y78740D01*
X598000Y78740D01*
X597000Y78740D01*
X596000Y78740D01*
X595000Y78740D01*
X594000Y78740D01*
X593000Y78740D01*
X592000Y78740D01*
X591000Y78740D01*
X590000Y78740D01*
X589000Y78740D01*
X588000Y78740D01*
X587000Y78740D01*
X586000Y78740D01*
X585000Y78740D01*
X584000Y78740D01*
X583000Y78740D01*
X582000Y78740D01*
X581000Y78740D01*
X580000Y78740D01*
X579000Y78740D01*
X578000Y78740D01*
X577000Y78740D01*
X576000Y78740D01*
X575000Y78740D01*
X574000Y78740D01*
X573000Y78740D01*
X572000Y78740D01*
X571000Y78740D01*
X570000Y78740D01*
X569000Y78740D01*
X568000Y78740D01*
X567000Y78740D01*
X566000Y78740D01*
X565000Y78740D01*
X564000Y78740D01*
X563000Y78740D01*
X562000Y78740D01*
X561000Y78740D01*
X560000Y78740D01*
X559000Y78740D01*
X558000Y78740D01*
X557000Y78740D01*
X556000Y78740D01*
X555000Y78740D01*
X554000Y78740D01*
X553000Y78740D01*
X552000Y78740D01*
X551000Y78740D01*
X550000Y78740D01*
X549000Y78740D01*
X548000Y78740D01*
X547000Y78740D01*
X546000Y78740D01*
X545000Y78740D01*
X544000Y78740D01*
X543000Y78740D01*
X542000Y78740D01*
X541000Y78740D01*
X540000Y78740D01*
X539000Y78740D01*
X538000Y78740D01*
X537000Y78740D01*
X536000Y78740D01*
X535000Y78740D01*
X534000Y79740D01*
X533000Y79740D01*
X532000Y79740D01*
X531000Y79740D01*
X530000Y79740D01*
X529000Y79740D01*
X528000Y79740D01*
X527000Y79740D01*
X526000Y79740D01*
X525000Y79740D01*
X524000Y79740D01*
X523000Y79740D01*
X522000Y79740D01*
X521000Y79740D01*
X520000Y79740D01*
X519000Y79740D01*
X518000Y79740D01*
X517000Y79740D01*
X516000Y79740D01*
X515000Y79740D01*
X514000Y79740D01*
X513000Y79740D01*
X512000Y79740D01*
X511000Y79740D01*
X510000Y79740D01*
X509000Y79740D01*
X508000Y79740D01*
X507000Y79740D01*
X506000Y79740D01*
X505000Y79740D01*
X504000Y79740D01*
X503000Y79740D01*
X502000Y79740D01*
X501000Y79740D01*
X500000Y79740D01*
X499000Y79740D01*
X498000Y79740D01*
X497000Y79740D01*
X496000Y79740D01*
X495000Y79740D01*
X494000Y79740D01*
X493000Y79740D01*
X492000Y79740D01*
X491000Y79740D01*
X490000Y79740D01*
X489000Y79740D01*
X488000Y79740D01*
X487000Y79740D01*
X486000Y79740D01*
X485000Y79740D01*
X484000Y79740D01*
X483000Y79740D01*
X482000Y79740D01*
X481000Y79740D01*
X480000Y79740D01*
X479000Y79740D01*
X478000Y79740D01*
X477000Y79740D01*
X476000Y79740D01*
X475000Y79740D01*
X474000Y79740D01*
X473000Y79740D01*
X472000Y79740D01*
X471000Y79740D01*
X470000Y79740D01*
X469000Y79740D01*
X468000Y79740D01*
X467000Y79740D01*
X466000Y79740D01*
X465000Y79740D01*
X464000Y79740D01*
X463000Y80740D01*
X462000Y80740D01*
X461000Y80740D01*
X460000Y80740D01*
X459000Y80740D01*
X458000Y80740D01*
X457000Y80740D01*
X456000Y81740D01*
X455000Y81740D01*
X454000Y81740D01*
X453000Y81740D01*
X452000Y81740D01*
X451000Y81740D01*
X450000Y82740D01*
X449000Y82740D01*
X448000Y82740D01*
X447000Y82740D01*
X446000Y83740D01*
X445000Y83740D01*
X444000Y83740D01*
X443000Y84740D01*
X442000Y84740D01*
X441000Y84740D01*
X440000Y85740D01*
X439000Y85740D01*
X438000Y85740D01*
X437000Y86740D01*
X436000Y86740D01*
X435000Y87740D01*
X434000Y87740D01*
X433000Y88740D01*
X432000Y88740D01*
X431000Y89740D01*
X430000Y89740D01*
X429000Y90740D01*
X428000Y90740D01*
X427000Y91740D01*
X426000Y92740D01*
X425000Y92740D01*
X424000Y93740D01*
X423000Y94740D01*
X422000Y95740D01*
X421000Y96740D01*
X420000Y97740D01*
X419000Y97740D01*
X419000Y98740D01*
X418000Y99740D01*
X417000Y100740D01*
X416000Y101740D01*
X415000Y102740D01*
X414000Y103740D01*
X414000Y104740D01*
X413000Y105740D01*
X412000Y106740D01*
X412000Y107740D01*
X411000Y108740D01*
X411000Y109740D01*
X410000Y110740D01*
X410000Y111740D01*
X409000Y112740D01*
X409000Y114740D01*
X408000Y115740D01*
X408000Y116740D01*
X407000Y117740D01*
X407000Y121740D01*
X406000Y122740D01*
X406000Y125740D01*
X405000Y126740D01*
X405000Y132740D01*
X404000Y133740D01*
X404000Y149740D01*
X405000Y150740D01*
X405000Y157740D01*
X406000Y158740D01*
X406000Y161740D01*
X407000Y162740D01*
X407000Y164740D01*
X408000Y165740D01*
X408000Y167740D01*
X409000Y168740D01*
X409000Y170740D01*
X410000Y171740D01*
X410000Y172740D01*
X411000Y173740D01*
X411000Y174740D01*
X412000Y175740D01*
X413000Y176740D01*
X413000Y177740D01*
X414000Y178740D01*
X415000Y179740D01*
X415000Y180740D01*
X416000Y181740D01*
X417000Y182740D01*
X418000Y183740D01*
X419000Y184740D01*
X420000Y185740D01*
X420000Y186740D01*
X421000Y187740D01*
X422000Y187740D01*
X423000Y188740D01*
X424000Y189740D01*
X425000Y190740D01*
X426000Y191740D01*
X427000Y191740D01*
X428000Y192740D01*
X429000Y193740D01*
X430000Y193740D01*
X431000Y194740D01*
X432000Y194740D01*
X433000Y195740D01*
X434000Y195740D01*
X435000Y196740D01*
X436000Y196740D01*
X437000Y197740D01*
X438000Y197740D01*
X439000Y198740D01*
X440000Y198740D01*
X441000Y199740D01*
X442000Y199740D01*
X443000Y199740D01*
X444000Y200740D01*
X445000Y200740D01*
X446000Y200740D01*
X447000Y201740D01*
X448000Y201740D01*
X449000Y201740D01*
X450000Y201740D01*
X451000Y202740D01*
X452000Y202740D01*
X453000Y202740D01*
X454000Y202740D01*
X455000Y203740D01*
X456000Y203740D01*
X457000Y203740D01*
X458000Y203740D01*
X459000Y203740D01*
X460000Y204740D01*
X461000Y204740D01*
X462000Y204740D01*
X463000Y204740D01*
X464000Y204740D01*
X465000Y204740D01*
X466000Y204740D01*
X467000Y204740D01*
X468000Y204740D01*
X469000Y205740D01*
D02*
G04 End of contour*
M02*