G04 MADE WITH FRITZING*
G04 WWW.FRITZING.ORG*
G04 DOUBLE SIDED*
G04 HOLES PLATED*
G04 CONTOUR ON CENTER OF CONTOUR VECTOR*
%FSLAX26Y26*%
%MOIN*%
%ADD10C,0.005000*%
%ADD10C,0.008*%
G04 CONTOUR*
%FSLAX26Y26*%
%MOIN*%
D10*
D10*
X24000Y4330710D02*
X25000Y4330710D01*
X26000Y4330710D01*
X27000Y4330710D01*
X28000Y4330710D01*
X29000Y4330710D01*
X30000Y4330710D01*
X31000Y4330710D01*
X32000Y4330710D01*
X33000Y4330710D01*
X34000Y4330710D01*
X35000Y4330710D01*
X36000Y4330710D01*
X37000Y4330710D01*
X38000Y4330710D01*
X39000Y4330710D01*
X40000Y4330710D01*
X41000Y4330710D01*
X42000Y4330710D01*
X43000Y4330710D01*
X44000Y4330710D01*
X45000Y4330710D01*
X46000Y4330710D01*
X47000Y4330710D01*
X48000Y4330710D01*
X49000Y4330710D01*
X50000Y4330710D01*
X51000Y4330710D01*
X52000Y4330710D01*
X53000Y4330710D01*
X54000Y4330710D01*
X55000Y4330710D01*
X56000Y4330710D01*
X57000Y4330710D01*
X58000Y4330710D01*
X59000Y4330710D01*
X60000Y4330710D01*
X61000Y4330710D01*
X62000Y4330710D01*
X63000Y4330710D01*
X64000Y4330710D01*
X65000Y4330710D01*
X66000Y4330710D01*
X67000Y4330710D01*
X68000Y4330710D01*
X69000Y4330710D01*
X70000Y4330710D01*
X71000Y4330710D01*
X72000Y4330710D01*
X73000Y4330710D01*
X74000Y4330710D01*
X75000Y4330710D01*
X76000Y4330710D01*
X77000Y4330710D01*
X78000Y4330710D01*
X79000Y4330710D01*
X80000Y4330710D01*
X81000Y4330710D01*
X82000Y4330710D01*
X83000Y4330710D01*
X84000Y4330710D01*
X85000Y4330710D01*
X86000Y4330710D01*
X87000Y4330710D01*
X88000Y4330710D01*
X89000Y4330710D01*
X90000Y4330710D01*
X91000Y4330710D01*
X92000Y4330710D01*
X93000Y4330710D01*
X94000Y4330710D01*
X95000Y4330710D01*
X96000Y4330710D01*
X97000Y4330710D01*
X98000Y4330710D01*
X99000Y4330710D01*
X100000Y4330710D01*
X101000Y4330710D01*
X102000Y4330710D01*
X103000Y4330710D01*
X104000Y4330710D01*
X105000Y4330710D01*
X106000Y4330710D01*
X107000Y4330710D01*
X108000Y4330710D01*
X109000Y4330710D01*
X110000Y4330710D01*
X111000Y4330710D01*
X112000Y4330710D01*
X113000Y4330710D01*
X114000Y4330710D01*
X115000Y4330710D01*
X116000Y4330710D01*
X117000Y4330710D01*
X118000Y4330710D01*
X119000Y4330710D01*
X120000Y4330710D01*
X121000Y4330710D01*
X122000Y4330710D01*
X123000Y4330710D01*
X124000Y4330710D01*
X125000Y4330710D01*
X126000Y4330710D01*
X127000Y4330710D01*
X128000Y4330710D01*
X129000Y4330710D01*
X130000Y4330710D01*
X131000Y4330710D01*
X132000Y4330710D01*
X133000Y4330710D01*
X134000Y4330710D01*
X135000Y4330710D01*
X136000Y4330710D01*
X137000Y4330710D01*
X138000Y4330710D01*
X139000Y4330710D01*
X140000Y4330710D01*
X141000Y4330710D01*
X142000Y4330710D01*
X143000Y4330710D01*
X144000Y4330710D01*
X145000Y4330710D01*
X146000Y4330710D01*
X147000Y4330710D01*
X148000Y4330710D01*
X149000Y4330710D01*
X150000Y4330710D01*
X151000Y4330710D01*
X152000Y4330710D01*
X153000Y4330710D01*
X154000Y4330710D01*
X155000Y4330710D01*
X156000Y4330710D01*
X157000Y4330710D01*
X158000Y4330710D01*
X159000Y4330710D01*
X160000Y4330710D01*
X161000Y4330710D01*
X162000Y4330710D01*
X163000Y4330710D01*
X164000Y4330710D01*
X165000Y4330710D01*
X166000Y4330710D01*
X167000Y4330710D01*
X168000Y4330710D01*
X169000Y4330710D01*
X170000Y4330710D01*
X171000Y4330710D01*
X172000Y4330710D01*
X173000Y4330710D01*
X174000Y4330710D01*
X175000Y4330710D01*
X176000Y4330710D01*
X177000Y4330710D01*
X178000Y4330710D01*
X179000Y4330710D01*
X180000Y4330710D01*
X181000Y4330710D01*
X182000Y4330710D01*
X183000Y4330710D01*
X184000Y4330710D01*
X185000Y4330710D01*
X186000Y4330710D01*
X187000Y4330710D01*
X188000Y4330710D01*
X189000Y4330710D01*
X190000Y4330710D01*
X191000Y4330710D01*
X192000Y4330710D01*
X193000Y4330710D01*
X194000Y4330710D01*
X195000Y4330710D01*
X196000Y4330710D01*
X197000Y4330710D01*
X198000Y4330710D01*
X199000Y4330710D01*
X200000Y4330710D01*
X201000Y4330710D01*
X202000Y4330710D01*
X203000Y4330710D01*
X204000Y4330710D01*
X205000Y4330710D01*
X206000Y4330710D01*
X207000Y4330710D01*
X208000Y4330710D01*
X209000Y4330710D01*
X210000Y4330710D01*
X211000Y4330710D01*
X212000Y4330710D01*
X213000Y4330710D01*
X214000Y4330710D01*
X215000Y4330710D01*
X216000Y4330710D01*
X217000Y4330710D01*
X218000Y4330710D01*
X219000Y4330710D01*
X220000Y4330710D01*
X221000Y4330710D01*
X222000Y4330710D01*
X223000Y4330710D01*
X224000Y4330710D01*
X225000Y4330710D01*
X226000Y4330710D01*
X227000Y4330710D01*
X228000Y4330710D01*
X229000Y4330710D01*
X230000Y4330710D01*
X231000Y4330710D01*
X232000Y4330710D01*
X233000Y4330710D01*
X234000Y4330710D01*
X235000Y4330710D01*
X236000Y4330710D01*
X237000Y4330710D01*
X238000Y4330710D01*
X239000Y4330710D01*
X240000Y4330710D01*
X241000Y4330710D01*
X242000Y4330710D01*
X243000Y4330710D01*
X244000Y4330710D01*
X245000Y4330710D01*
X246000Y4330710D01*
X247000Y4330710D01*
X248000Y4330710D01*
X249000Y4330710D01*
X250000Y4330710D01*
X251000Y4330710D01*
X252000Y4330710D01*
X253000Y4330710D01*
X254000Y4330710D01*
X255000Y4330710D01*
X256000Y4330710D01*
X257000Y4330710D01*
X258000Y4330710D01*
X259000Y4330710D01*
X260000Y4330710D01*
X261000Y4330710D01*
X262000Y4330710D01*
X263000Y4330710D01*
X264000Y4330710D01*
X265000Y4330710D01*
X266000Y4330710D01*
X267000Y4330710D01*
X268000Y4330710D01*
X269000Y4330710D01*
X270000Y4330710D01*
X271000Y4330710D01*
X272000Y4330710D01*
X273000Y4330710D01*
X274000Y4330710D01*
X275000Y4330710D01*
X276000Y4330710D01*
X277000Y4330710D01*
X278000Y4330710D01*
X279000Y4330710D01*
X280000Y4330710D01*
X281000Y4330710D01*
X282000Y4330710D01*
X283000Y4330710D01*
X284000Y4330710D01*
X285000Y4330710D01*
X286000Y4330710D01*
X287000Y4330710D01*
X288000Y4330710D01*
X289000Y4330710D01*
X290000Y4330710D01*
X291000Y4330710D01*
X292000Y4330710D01*
X293000Y4330710D01*
X294000Y4330710D01*
X295000Y4330710D01*
X296000Y4330710D01*
X297000Y4330710D01*
X298000Y4330710D01*
X299000Y4330710D01*
X300000Y4330710D01*
X301000Y4330710D01*
X302000Y4330710D01*
X303000Y4330710D01*
X304000Y4330710D01*
X305000Y4330710D01*
X306000Y4330710D01*
X307000Y4330710D01*
X308000Y4330710D01*
X309000Y4330710D01*
X310000Y4330710D01*
X311000Y4330710D01*
X312000Y4330710D01*
X313000Y4330710D01*
X314000Y4330710D01*
X315000Y4330710D01*
X316000Y4330710D01*
X317000Y4330710D01*
X318000Y4330710D01*
X319000Y4330710D01*
X320000Y4330710D01*
X321000Y4330710D01*
X322000Y4330710D01*
X323000Y4330710D01*
X324000Y4330710D01*
X325000Y4330710D01*
X326000Y4330710D01*
X327000Y4330710D01*
X328000Y4330710D01*
X329000Y4330710D01*
X330000Y4330710D01*
X331000Y4330710D01*
X332000Y4330710D01*
X333000Y4330710D01*
X334000Y4330710D01*
X335000Y4330710D01*
X336000Y4330710D01*
X337000Y4330710D01*
X338000Y4330710D01*
X339000Y4330710D01*
X340000Y4330710D01*
X341000Y4330710D01*
X342000Y4330710D01*
X343000Y4330710D01*
X344000Y4330710D01*
X345000Y4330710D01*
X346000Y4330710D01*
X347000Y4330710D01*
X348000Y4330710D01*
X349000Y4330710D01*
X350000Y4330710D01*
X351000Y4330710D01*
X352000Y4330710D01*
X353000Y4330710D01*
X354000Y4330710D01*
X355000Y4330710D01*
X356000Y4330710D01*
X357000Y4330710D01*
X358000Y4330710D01*
X359000Y4330710D01*
X360000Y4330710D01*
X361000Y4330710D01*
X362000Y4330710D01*
X363000Y4330710D01*
X364000Y4330710D01*
X365000Y4330710D01*
X366000Y4330710D01*
X367000Y4330710D01*
X368000Y4330710D01*
X369000Y4330710D01*
X370000Y4330710D01*
X371000Y4330710D01*
X372000Y4330710D01*
X373000Y4330710D01*
X374000Y4330710D01*
X375000Y4330710D01*
X376000Y4330710D01*
X377000Y4330710D01*
X378000Y4330710D01*
X379000Y4330710D01*
X380000Y4330710D01*
X381000Y4330710D01*
X382000Y4330710D01*
X383000Y4330710D01*
X384000Y4330710D01*
X385000Y4330710D01*
X386000Y4330710D01*
X387000Y4330710D01*
X388000Y4330710D01*
X389000Y4330710D01*
X390000Y4330710D01*
X391000Y4330710D01*
X392000Y4330710D01*
X393000Y4330710D01*
X394000Y4330710D01*
X395000Y4330710D01*
X396000Y4330710D01*
X397000Y4330710D01*
X398000Y4330710D01*
X399000Y4330710D01*
X400000Y4330710D01*
X401000Y4330710D01*
X402000Y4330710D01*
X403000Y4330710D01*
X404000Y4330710D01*
X405000Y4330710D01*
X406000Y4330710D01*
X407000Y4330710D01*
X408000Y4330710D01*
X409000Y4330710D01*
X410000Y4330710D01*
X411000Y4330710D01*
X412000Y4330710D01*
X413000Y4330710D01*
X414000Y4330710D01*
X415000Y4330710D01*
X416000Y4330710D01*
X417000Y4330710D01*
X418000Y4330710D01*
X419000Y4330710D01*
X420000Y4330710D01*
X421000Y4330710D01*
X422000Y4330710D01*
X423000Y4330710D01*
X424000Y4330710D01*
X425000Y4330710D01*
X426000Y4330710D01*
X427000Y4330710D01*
X428000Y4330710D01*
X429000Y4330710D01*
X430000Y4330710D01*
X431000Y4330710D01*
X432000Y4330710D01*
X433000Y4330710D01*
X434000Y4330710D01*
X435000Y4330710D01*
X436000Y4330710D01*
X437000Y4330710D01*
X438000Y4330710D01*
X439000Y4330710D01*
X440000Y4330710D01*
X441000Y4330710D01*
X442000Y4330710D01*
X443000Y4330710D01*
X444000Y4330710D01*
X445000Y4330710D01*
X446000Y4330710D01*
X447000Y4330710D01*
X448000Y4330710D01*
X449000Y4330710D01*
X450000Y4330710D01*
X451000Y4330710D01*
X452000Y4330710D01*
X453000Y4330710D01*
X454000Y4330710D01*
X455000Y4330710D01*
X456000Y4330710D01*
X457000Y4330710D01*
X458000Y4330710D01*
X459000Y4330710D01*
X460000Y4330710D01*
X461000Y4330710D01*
X462000Y4330710D01*
X463000Y4330710D01*
X464000Y4330710D01*
X465000Y4330710D01*
X466000Y4330710D01*
X467000Y4330710D01*
X468000Y4330710D01*
X469000Y4330710D01*
X470000Y4330710D01*
X471000Y4330710D01*
X472000Y4330710D01*
X473000Y4330710D01*
X474000Y4330710D01*
X475000Y4330710D01*
X476000Y4330710D01*
X477000Y4330710D01*
X478000Y4330710D01*
X479000Y4330710D01*
X480000Y4330710D01*
X481000Y4330710D01*
X482000Y4330710D01*
X483000Y4330710D01*
X484000Y4330710D01*
X485000Y4330710D01*
X486000Y4330710D01*
X487000Y4330710D01*
X488000Y4330710D01*
X489000Y4330710D01*
X490000Y4330710D01*
X491000Y4330710D01*
X492000Y4330710D01*
X493000Y4330710D01*
X494000Y4330710D01*
X495000Y4330710D01*
X496000Y4330710D01*
X497000Y4330710D01*
X498000Y4330710D01*
X499000Y4330710D01*
X500000Y4330710D01*
X501000Y4330710D01*
X502000Y4330710D01*
X503000Y4330710D01*
X504000Y4330710D01*
X505000Y4330710D01*
X506000Y4330710D01*
X507000Y4330710D01*
X508000Y4330710D01*
X509000Y4330710D01*
X510000Y4330710D01*
X511000Y4330710D01*
X512000Y4330710D01*
X513000Y4330710D01*
X514000Y4330710D01*
X515000Y4330710D01*
X516000Y4330710D01*
X517000Y4330710D01*
X518000Y4330710D01*
X519000Y4330710D01*
X520000Y4330710D01*
X521000Y4330710D01*
X522000Y4330710D01*
X523000Y4330710D01*
X524000Y4330710D01*
X525000Y4330710D01*
X526000Y4330710D01*
X527000Y4330710D01*
X528000Y4330710D01*
X529000Y4330710D01*
X530000Y4330710D01*
X531000Y4330710D01*
X532000Y4330710D01*
X533000Y4330710D01*
X534000Y4330710D01*
X535000Y4330710D01*
X536000Y4330710D01*
X537000Y4330710D01*
X538000Y4330710D01*
X539000Y4330710D01*
X540000Y4330710D01*
X541000Y4330710D01*
X542000Y4330710D01*
X543000Y4330710D01*
X544000Y4330710D01*
X545000Y4330710D01*
X546000Y4330710D01*
X547000Y4330710D01*
X548000Y4330710D01*
X549000Y4330710D01*
X550000Y4330710D01*
X551000Y4330710D01*
X552000Y4330710D01*
X553000Y4330710D01*
X554000Y4330710D01*
X555000Y4330710D01*
X556000Y4330710D01*
X557000Y4330710D01*
X558000Y4330710D01*
X559000Y4330710D01*
X560000Y4330710D01*
X561000Y4330710D01*
X562000Y4330710D01*
X563000Y4330710D01*
X564000Y4330710D01*
X565000Y4330710D01*
X566000Y4330710D01*
X567000Y4330710D01*
X568000Y4330710D01*
X569000Y4330710D01*
X570000Y4330710D01*
X571000Y4330710D01*
X572000Y4330710D01*
X573000Y4330710D01*
X574000Y4330710D01*
X575000Y4330710D01*
X576000Y4330710D01*
X577000Y4330710D01*
X578000Y4330710D01*
X579000Y4330710D01*
X580000Y4330710D01*
X581000Y4330710D01*
X582000Y4330710D01*
X583000Y4330710D01*
X584000Y4330710D01*
X585000Y4330710D01*
X586000Y4330710D01*
X587000Y4330710D01*
X588000Y4330710D01*
X589000Y4330710D01*
X590000Y4330710D01*
X591000Y4330710D01*
X592000Y4330710D01*
X593000Y4330710D01*
X594000Y4330710D01*
X595000Y4330710D01*
X596000Y4330710D01*
X597000Y4330710D01*
X598000Y4330710D01*
X599000Y4330710D01*
X600000Y4330710D01*
X601000Y4330710D01*
X602000Y4330710D01*
X603000Y4330710D01*
X604000Y4330710D01*
X605000Y4330710D01*
X606000Y4330710D01*
X607000Y4330710D01*
X608000Y4330710D01*
X609000Y4330710D01*
X610000Y4330710D01*
X611000Y4330710D01*
X612000Y4330710D01*
X613000Y4330710D01*
X614000Y4330710D01*
X615000Y4330710D01*
X616000Y4330710D01*
X617000Y4330710D01*
X618000Y4330710D01*
X619000Y4330710D01*
X620000Y4330710D01*
X621000Y4330710D01*
X622000Y4330710D01*
X623000Y4330710D01*
X624000Y4330710D01*
X625000Y4330710D01*
X626000Y4330710D01*
X627000Y4330710D01*
X628000Y4330710D01*
X629000Y4330710D01*
X630000Y4330710D01*
X631000Y4330710D01*
X632000Y4330710D01*
X633000Y4330710D01*
X634000Y4330710D01*
X635000Y4330710D01*
X636000Y4330710D01*
X637000Y4330710D01*
X638000Y4330710D01*
X639000Y4330710D01*
X640000Y4330710D01*
X641000Y4330710D01*
X642000Y4330710D01*
X643000Y4330710D01*
X644000Y4330710D01*
X645000Y4330710D01*
X646000Y4330710D01*
X647000Y4330710D01*
X648000Y4330710D01*
X649000Y4330710D01*
X650000Y4330710D01*
X651000Y4330710D01*
X652000Y4330710D01*
X653000Y4330710D01*
X654000Y4330710D01*
X655000Y4330710D01*
X656000Y4330710D01*
X657000Y4330710D01*
X658000Y4330710D01*
X659000Y4330710D01*
X660000Y4330710D01*
X661000Y4330710D01*
X662000Y4330710D01*
X663000Y4330710D01*
X664000Y4330710D01*
X665000Y4330710D01*
X666000Y4330710D01*
X667000Y4330710D01*
X668000Y4330710D01*
X669000Y4330710D01*
X670000Y4330710D01*
X671000Y4330710D01*
X672000Y4330710D01*
X673000Y4330710D01*
X674000Y4330710D01*
X675000Y4330710D01*
X676000Y4330710D01*
X677000Y4330710D01*
X678000Y4330710D01*
X679000Y4330710D01*
X680000Y4330710D01*
X681000Y4330710D01*
X682000Y4330710D01*
X683000Y4330710D01*
X684000Y4330710D01*
X685000Y4330710D01*
X686000Y4330710D01*
X687000Y4330710D01*
X688000Y4330710D01*
X689000Y4330710D01*
X690000Y4330710D01*
X691000Y4330710D01*
X692000Y4330710D01*
X693000Y4330710D01*
X694000Y4330710D01*
X695000Y4330710D01*
X696000Y4330710D01*
X697000Y4330710D01*
X698000Y4330710D01*
X699000Y4330710D01*
X700000Y4330710D01*
X701000Y4330710D01*
X702000Y4330710D01*
X703000Y4330710D01*
X704000Y4330710D01*
X705000Y4330710D01*
X706000Y4330710D01*
X707000Y4330710D01*
X708000Y4330710D01*
X709000Y4330710D01*
X710000Y4330710D01*
X711000Y4330710D01*
X712000Y4330710D01*
X713000Y4330710D01*
X714000Y4330710D01*
X715000Y4330710D01*
X716000Y4330710D01*
X717000Y4330710D01*
X718000Y4330710D01*
X719000Y4330710D01*
X720000Y4330710D01*
X721000Y4330710D01*
X722000Y4330710D01*
X723000Y4330710D01*
X724000Y4330710D01*
X725000Y4330710D01*
X726000Y4330710D01*
X727000Y4330710D01*
X728000Y4330710D01*
X729000Y4330710D01*
X730000Y4330710D01*
X731000Y4330710D01*
X732000Y4330710D01*
X733000Y4330710D01*
X734000Y4330710D01*
X735000Y4330710D01*
X736000Y4330710D01*
X737000Y4330710D01*
X738000Y4330710D01*
X739000Y4330710D01*
X740000Y4330710D01*
X741000Y4330710D01*
X742000Y4330710D01*
X743000Y4330710D01*
X744000Y4330710D01*
X745000Y4330710D01*
X746000Y4330710D01*
X747000Y4330710D01*
X748000Y4330710D01*
X749000Y4330710D01*
X750000Y4330710D01*
X751000Y4330710D01*
X752000Y4330710D01*
X753000Y4330710D01*
X754000Y4330710D01*
X755000Y4330710D01*
X756000Y4330710D01*
X757000Y4330710D01*
X758000Y4330710D01*
X759000Y4330710D01*
X760000Y4330710D01*
X761000Y4330710D01*
X762000Y4330710D01*
X763000Y4329710D01*
X764000Y4329710D01*
X765000Y4329710D01*
X766000Y4329710D01*
X767000Y4328710D01*
X768000Y4328710D01*
X769000Y4327710D01*
X770000Y4326710D01*
X771000Y4326710D01*
X772000Y4325710D01*
X773000Y4324710D01*
X774000Y4323710D01*
X775000Y4322710D01*
X776000Y4321710D01*
X776000Y4320710D01*
X777000Y4319710D01*
X778000Y4318710D01*
X778000Y4317710D01*
X779000Y4316710D01*
X780000Y4315710D01*
X780000Y4314710D01*
X781000Y4313710D01*
X781000Y4311710D01*
X782000Y4310710D01*
X782000Y4309710D01*
X783000Y4308710D01*
X783000Y4306710D01*
X784000Y4305710D01*
X784000Y4302710D01*
X785000Y4301710D01*
X785000Y4296710D01*
X786000Y4295710D01*
X786000Y36710D01*
X785000Y35710D01*
X785000Y30710D01*
X784000Y29710D01*
X784000Y26710D01*
X783000Y25710D01*
X783000Y23710D01*
X782000Y22710D01*
X782000Y21710D01*
X781000Y20710D01*
X781000Y18710D01*
X780000Y17710D01*
X780000Y16710D01*
X779000Y15710D01*
X778000Y14710D01*
X778000Y13710D01*
X777000Y12710D01*
X776000Y11710D01*
X776000Y10710D01*
X775000Y9710D01*
X774000Y8710D01*
X773000Y7710D01*
X772000Y6710D01*
X771000Y5710D01*
X770000Y5710D01*
X769000Y4710D01*
X768000Y3710D01*
X767000Y3710D01*
X766000Y2710D01*
X765000Y2710D01*
X764000Y2710D01*
X763000Y2710D01*
X762000Y1710D01*
X761000Y1710D01*
X760000Y1710D01*
X759000Y1710D01*
X758000Y1710D01*
X757000Y1710D01*
X756000Y1710D01*
X755000Y1710D01*
X754000Y1710D01*
X753000Y1710D01*
X752000Y1710D01*
X751000Y1710D01*
X750000Y1710D01*
X749000Y1710D01*
X748000Y1710D01*
X747000Y1710D01*
X746000Y1710D01*
X745000Y1710D01*
X744000Y1710D01*
X743000Y1710D01*
X742000Y1710D01*
X741000Y1710D01*
X740000Y1710D01*
X739000Y1710D01*
X738000Y1710D01*
X737000Y1710D01*
X736000Y1710D01*
X735000Y1710D01*
X734000Y1710D01*
X733000Y1710D01*
X732000Y1710D01*
X731000Y1710D01*
X730000Y1710D01*
X729000Y1710D01*
X728000Y1710D01*
X727000Y1710D01*
X726000Y1710D01*
X725000Y1710D01*
X724000Y1710D01*
X723000Y1710D01*
X722000Y1710D01*
X721000Y1710D01*
X720000Y1710D01*
X719000Y1710D01*
X718000Y1710D01*
X717000Y1710D01*
X716000Y1710D01*
X715000Y1710D01*
X714000Y1710D01*
X713000Y1710D01*
X712000Y1710D01*
X711000Y1710D01*
X710000Y1710D01*
X709000Y1710D01*
X708000Y1710D01*
X707000Y1710D01*
X706000Y1710D01*
X705000Y1710D01*
X704000Y1710D01*
X703000Y1710D01*
X702000Y1710D01*
X701000Y1710D01*
X700000Y1710D01*
X699000Y1710D01*
X698000Y1710D01*
X697000Y1710D01*
X696000Y1710D01*
X695000Y1710D01*
X694000Y1710D01*
X693000Y1710D01*
X692000Y1710D01*
X691000Y1710D01*
X690000Y1710D01*
X689000Y1710D01*
X688000Y1710D01*
X687000Y1710D01*
X686000Y1710D01*
X685000Y1710D01*
X684000Y1710D01*
X683000Y1710D01*
X682000Y1710D01*
X681000Y1710D01*
X680000Y1710D01*
X679000Y1710D01*
X678000Y1710D01*
X677000Y1710D01*
X676000Y1710D01*
X675000Y1710D01*
X674000Y1710D01*
X673000Y1710D01*
X672000Y1710D01*
X671000Y1710D01*
X670000Y1710D01*
X669000Y1710D01*
X668000Y1710D01*
X667000Y1710D01*
X666000Y1710D01*
X665000Y1710D01*
X664000Y1710D01*
X663000Y1710D01*
X662000Y1710D01*
X661000Y1710D01*
X660000Y1710D01*
X659000Y1710D01*
X658000Y1710D01*
X657000Y1710D01*
X656000Y1710D01*
X655000Y1710D01*
X654000Y1710D01*
X653000Y1710D01*
X652000Y1710D01*
X651000Y1710D01*
X650000Y1710D01*
X649000Y1710D01*
X648000Y1710D01*
X647000Y1710D01*
X646000Y1710D01*
X645000Y1710D01*
X644000Y1710D01*
X643000Y1710D01*
X642000Y1710D01*
X641000Y1710D01*
X640000Y1710D01*
X639000Y1710D01*
X638000Y1710D01*
X637000Y1710D01*
X636000Y1710D01*
X635000Y1710D01*
X634000Y1710D01*
X633000Y1710D01*
X632000Y1710D01*
X631000Y1710D01*
X630000Y1710D01*
X629000Y1710D01*
X628000Y1710D01*
X627000Y1710D01*
X626000Y1710D01*
X625000Y1710D01*
X624000Y1710D01*
X623000Y1710D01*
X622000Y1710D01*
X621000Y1710D01*
X620000Y1710D01*
X619000Y1710D01*
X618000Y1710D01*
X617000Y1710D01*
X616000Y1710D01*
X615000Y1710D01*
X614000Y1710D01*
X613000Y1710D01*
X612000Y1710D01*
X611000Y1710D01*
X610000Y1710D01*
X609000Y1710D01*
X608000Y1710D01*
X607000Y1710D01*
X606000Y1710D01*
X605000Y1710D01*
X604000Y1710D01*
X603000Y1710D01*
X602000Y1710D01*
X601000Y1710D01*
X600000Y1710D01*
X599000Y1710D01*
X598000Y1710D01*
X597000Y1710D01*
X596000Y1710D01*
X595000Y1710D01*
X594000Y1710D01*
X593000Y1710D01*
X592000Y1710D01*
X591000Y1710D01*
X590000Y1710D01*
X589000Y1710D01*
X588000Y1710D01*
X587000Y1710D01*
X586000Y1710D01*
X585000Y1710D01*
X584000Y1710D01*
X583000Y1710D01*
X582000Y1710D01*
X581000Y1710D01*
X580000Y1710D01*
X579000Y1710D01*
X578000Y1710D01*
X577000Y1710D01*
X576000Y1710D01*
X575000Y1710D01*
X574000Y1710D01*
X573000Y1710D01*
X572000Y1710D01*
X571000Y1710D01*
X570000Y1710D01*
X569000Y1710D01*
X568000Y1710D01*
X567000Y1710D01*
X566000Y1710D01*
X565000Y1710D01*
X564000Y1710D01*
X563000Y1710D01*
X562000Y1710D01*
X561000Y1710D01*
X560000Y1710D01*
X559000Y1710D01*
X558000Y1710D01*
X557000Y1710D01*
X556000Y1710D01*
X555000Y1710D01*
X554000Y1710D01*
X553000Y1710D01*
X552000Y1710D01*
X551000Y1710D01*
X550000Y1710D01*
X549000Y1710D01*
X548000Y1710D01*
X547000Y1710D01*
X546000Y1710D01*
X545000Y1710D01*
X544000Y1710D01*
X543000Y1710D01*
X542000Y1710D01*
X541000Y1710D01*
X540000Y1710D01*
X539000Y1710D01*
X538000Y1710D01*
X537000Y1710D01*
X536000Y1710D01*
X535000Y1710D01*
X534000Y1710D01*
X533000Y1710D01*
X532000Y1710D01*
X531000Y1710D01*
X530000Y1710D01*
X529000Y1710D01*
X528000Y1710D01*
X527000Y1710D01*
X526000Y1710D01*
X525000Y1710D01*
X524000Y1710D01*
X523000Y1710D01*
X522000Y1710D01*
X521000Y1710D01*
X520000Y1710D01*
X519000Y1710D01*
X518000Y1710D01*
X517000Y1710D01*
X516000Y1710D01*
X515000Y1710D01*
X514000Y1710D01*
X513000Y1710D01*
X512000Y1710D01*
X511000Y1710D01*
X510000Y1710D01*
X509000Y1710D01*
X508000Y1710D01*
X507000Y1710D01*
X506000Y1710D01*
X505000Y1710D01*
X504000Y1710D01*
X503000Y1710D01*
X502000Y1710D01*
X501000Y1710D01*
X500000Y1710D01*
X499000Y1710D01*
X498000Y1710D01*
X497000Y1710D01*
X496000Y1710D01*
X495000Y1710D01*
X494000Y1710D01*
X493000Y1710D01*
X492000Y1710D01*
X491000Y1710D01*
X490000Y1710D01*
X489000Y1710D01*
X488000Y1710D01*
X487000Y1710D01*
X486000Y1710D01*
X485000Y1710D01*
X484000Y1710D01*
X483000Y1710D01*
X482000Y1710D01*
X481000Y1710D01*
X480000Y1710D01*
X479000Y1710D01*
X478000Y1710D01*
X477000Y1710D01*
X476000Y1710D01*
X475000Y1710D01*
X474000Y1710D01*
X473000Y1710D01*
X472000Y1710D01*
X471000Y1710D01*
X470000Y1710D01*
X469000Y1710D01*
X468000Y1710D01*
X467000Y1710D01*
X466000Y1710D01*
X465000Y1710D01*
X464000Y1710D01*
X463000Y1710D01*
X462000Y1710D01*
X461000Y1710D01*
X460000Y1710D01*
X459000Y1710D01*
X458000Y1710D01*
X457000Y1710D01*
X456000Y1710D01*
X455000Y1710D01*
X454000Y1710D01*
X453000Y1710D01*
X452000Y1710D01*
X451000Y1710D01*
X450000Y1710D01*
X449000Y1710D01*
X448000Y1710D01*
X447000Y1710D01*
X446000Y1710D01*
X445000Y1710D01*
X444000Y1710D01*
X443000Y1710D01*
X442000Y1710D01*
X441000Y1710D01*
X440000Y1710D01*
X439000Y1710D01*
X438000Y1710D01*
X437000Y1710D01*
X436000Y1710D01*
X435000Y1710D01*
X434000Y1710D01*
X433000Y1710D01*
X432000Y1710D01*
X431000Y1710D01*
X430000Y1710D01*
X429000Y1710D01*
X428000Y1710D01*
X427000Y1710D01*
X426000Y1710D01*
X425000Y1710D01*
X424000Y1710D01*
X423000Y1710D01*
X422000Y1710D01*
X421000Y1710D01*
X420000Y1710D01*
X419000Y1710D01*
X418000Y1710D01*
X417000Y1710D01*
X416000Y1710D01*
X415000Y1710D01*
X414000Y1710D01*
X413000Y1710D01*
X412000Y1710D01*
X411000Y1710D01*
X410000Y1710D01*
X409000Y1710D01*
X408000Y1710D01*
X407000Y1710D01*
X406000Y1710D01*
X405000Y1710D01*
X404000Y1710D01*
X403000Y1710D01*
X402000Y1710D01*
X401000Y1710D01*
X400000Y1710D01*
X399000Y1710D01*
X398000Y1710D01*
X397000Y1710D01*
X396000Y1710D01*
X395000Y1710D01*
X394000Y1710D01*
X393000Y1710D01*
X392000Y1710D01*
X391000Y1710D01*
X390000Y1710D01*
X389000Y1710D01*
X388000Y1710D01*
X387000Y1710D01*
X386000Y1710D01*
X385000Y1710D01*
X384000Y1710D01*
X383000Y1710D01*
X382000Y1710D01*
X381000Y1710D01*
X380000Y1710D01*
X379000Y1710D01*
X378000Y1710D01*
X377000Y1710D01*
X376000Y1710D01*
X375000Y1710D01*
X374000Y1710D01*
X373000Y1710D01*
X372000Y1710D01*
X371000Y1710D01*
X370000Y1710D01*
X369000Y1710D01*
X368000Y1710D01*
X367000Y1710D01*
X366000Y1710D01*
X365000Y1710D01*
X364000Y1710D01*
X363000Y1710D01*
X362000Y1710D01*
X361000Y1710D01*
X360000Y1710D01*
X359000Y1710D01*
X358000Y1710D01*
X357000Y1710D01*
X356000Y1710D01*
X355000Y1710D01*
X354000Y1710D01*
X353000Y1710D01*
X352000Y1710D01*
X351000Y1710D01*
X350000Y1710D01*
X349000Y1710D01*
X348000Y1710D01*
X347000Y1710D01*
X346000Y1710D01*
X345000Y1710D01*
X344000Y1710D01*
X343000Y1710D01*
X342000Y1710D01*
X341000Y1710D01*
X340000Y1710D01*
X339000Y1710D01*
X338000Y1710D01*
X337000Y1710D01*
X336000Y1710D01*
X335000Y1710D01*
X334000Y1710D01*
X333000Y1710D01*
X332000Y1710D01*
X331000Y1710D01*
X330000Y1710D01*
X329000Y1710D01*
X328000Y1710D01*
X327000Y1710D01*
X326000Y1710D01*
X325000Y1710D01*
X324000Y1710D01*
X323000Y1710D01*
X322000Y1710D01*
X321000Y1710D01*
X320000Y1710D01*
X319000Y1710D01*
X318000Y1710D01*
X317000Y1710D01*
X316000Y1710D01*
X315000Y1710D01*
X314000Y1710D01*
X313000Y1710D01*
X312000Y1710D01*
X311000Y1710D01*
X310000Y1710D01*
X309000Y1710D01*
X308000Y1710D01*
X307000Y1710D01*
X306000Y1710D01*
X305000Y1710D01*
X304000Y1710D01*
X303000Y1710D01*
X302000Y1710D01*
X301000Y1710D01*
X300000Y1710D01*
X299000Y1710D01*
X298000Y1710D01*
X297000Y1710D01*
X296000Y1710D01*
X295000Y1710D01*
X294000Y1710D01*
X293000Y1710D01*
X292000Y1710D01*
X291000Y1710D01*
X290000Y1710D01*
X289000Y1710D01*
X288000Y1710D01*
X287000Y1710D01*
X286000Y1710D01*
X285000Y1710D01*
X284000Y1710D01*
X283000Y1710D01*
X282000Y1710D01*
X281000Y1710D01*
X280000Y1710D01*
X279000Y1710D01*
X278000Y1710D01*
X277000Y1710D01*
X276000Y1710D01*
X275000Y1710D01*
X274000Y1710D01*
X273000Y1710D01*
X272000Y1710D01*
X271000Y1710D01*
X270000Y1710D01*
X269000Y1710D01*
X268000Y1710D01*
X267000Y1710D01*
X266000Y1710D01*
X265000Y1710D01*
X264000Y1710D01*
X263000Y1710D01*
X262000Y1710D01*
X261000Y1710D01*
X260000Y1710D01*
X259000Y1710D01*
X258000Y1710D01*
X257000Y1710D01*
X256000Y1710D01*
X255000Y1710D01*
X254000Y1710D01*
X253000Y1710D01*
X252000Y1710D01*
X251000Y1710D01*
X250000Y1710D01*
X249000Y1710D01*
X248000Y1710D01*
X247000Y1710D01*
X246000Y1710D01*
X245000Y1710D01*
X244000Y1710D01*
X243000Y1710D01*
X242000Y1710D01*
X241000Y1710D01*
X240000Y1710D01*
X239000Y1710D01*
X238000Y1710D01*
X237000Y1710D01*
X236000Y1710D01*
X235000Y1710D01*
X234000Y1710D01*
X233000Y1710D01*
X232000Y1710D01*
X231000Y1710D01*
X230000Y1710D01*
X229000Y1710D01*
X228000Y1710D01*
X227000Y1710D01*
X226000Y1710D01*
X225000Y1710D01*
X224000Y1710D01*
X223000Y1710D01*
X222000Y1710D01*
X221000Y1710D01*
X220000Y1710D01*
X219000Y1710D01*
X218000Y1710D01*
X217000Y1710D01*
X216000Y1710D01*
X215000Y1710D01*
X214000Y1710D01*
X213000Y1710D01*
X212000Y1710D01*
X211000Y1710D01*
X210000Y1710D01*
X209000Y1710D01*
X208000Y1710D01*
X207000Y1710D01*
X206000Y1710D01*
X205000Y1710D01*
X204000Y1710D01*
X203000Y1710D01*
X202000Y1710D01*
X201000Y1710D01*
X200000Y1710D01*
X199000Y1710D01*
X198000Y1710D01*
X197000Y1710D01*
X196000Y1710D01*
X195000Y1710D01*
X194000Y1710D01*
X193000Y1710D01*
X192000Y1710D01*
X191000Y1710D01*
X190000Y1710D01*
X189000Y1710D01*
X188000Y1710D01*
X187000Y1710D01*
X186000Y1710D01*
X185000Y1710D01*
X184000Y1710D01*
X183000Y1710D01*
X182000Y1710D01*
X181000Y1710D01*
X180000Y1710D01*
X179000Y1710D01*
X178000Y1710D01*
X177000Y1710D01*
X176000Y1710D01*
X175000Y1710D01*
X174000Y1710D01*
X173000Y1710D01*
X172000Y1710D01*
X171000Y1710D01*
X170000Y1710D01*
X169000Y1710D01*
X168000Y1710D01*
X167000Y1710D01*
X166000Y1710D01*
X165000Y1710D01*
X164000Y1710D01*
X163000Y1710D01*
X162000Y1710D01*
X161000Y1710D01*
X160000Y1710D01*
X159000Y1710D01*
X158000Y1710D01*
X157000Y1710D01*
X156000Y1710D01*
X155000Y1710D01*
X154000Y1710D01*
X153000Y1710D01*
X152000Y1710D01*
X151000Y1710D01*
X150000Y1710D01*
X149000Y1710D01*
X148000Y1710D01*
X147000Y1710D01*
X146000Y1710D01*
X145000Y1710D01*
X144000Y1710D01*
X143000Y1710D01*
X142000Y1710D01*
X141000Y1710D01*
X140000Y1710D01*
X139000Y1710D01*
X138000Y1710D01*
X137000Y1710D01*
X136000Y1710D01*
X135000Y1710D01*
X134000Y1710D01*
X133000Y1710D01*
X132000Y1710D01*
X131000Y1710D01*
X130000Y1710D01*
X129000Y1710D01*
X128000Y1710D01*
X127000Y1710D01*
X126000Y1710D01*
X125000Y1710D01*
X124000Y1710D01*
X123000Y1710D01*
X122000Y1710D01*
X121000Y1710D01*
X120000Y1710D01*
X119000Y1710D01*
X118000Y1710D01*
X117000Y1710D01*
X116000Y1710D01*
X115000Y1710D01*
X114000Y1710D01*
X113000Y1710D01*
X112000Y1710D01*
X111000Y1710D01*
X110000Y1710D01*
X109000Y1710D01*
X108000Y1710D01*
X107000Y1710D01*
X106000Y1710D01*
X105000Y1710D01*
X104000Y1710D01*
X103000Y1710D01*
X102000Y1710D01*
X101000Y1710D01*
X100000Y1710D01*
X99000Y1710D01*
X98000Y1710D01*
X97000Y1710D01*
X96000Y1710D01*
X95000Y1710D01*
X94000Y1710D01*
X93000Y1710D01*
X92000Y1710D01*
X91000Y1710D01*
X90000Y1710D01*
X89000Y1710D01*
X88000Y1710D01*
X87000Y1710D01*
X86000Y1710D01*
X85000Y1710D01*
X84000Y1710D01*
X83000Y1710D01*
X82000Y1710D01*
X81000Y1710D01*
X80000Y1710D01*
X79000Y1710D01*
X78000Y1710D01*
X77000Y1710D01*
X76000Y1710D01*
X75000Y1710D01*
X74000Y1710D01*
X73000Y1710D01*
X72000Y1710D01*
X71000Y1710D01*
X70000Y1710D01*
X69000Y1710D01*
X68000Y1710D01*
X67000Y1710D01*
X66000Y1710D01*
X65000Y1710D01*
X64000Y1710D01*
X63000Y1710D01*
X62000Y1710D01*
X61000Y1710D01*
X60000Y1710D01*
X59000Y1710D01*
X58000Y1710D01*
X57000Y1710D01*
X56000Y1710D01*
X55000Y1710D01*
X54000Y1710D01*
X53000Y1710D01*
X52000Y1710D01*
X51000Y1710D01*
X50000Y1710D01*
X49000Y1710D01*
X48000Y1710D01*
X47000Y1710D01*
X46000Y1710D01*
X45000Y1710D01*
X44000Y1710D01*
X43000Y1710D01*
X42000Y1710D01*
X41000Y1710D01*
X40000Y1710D01*
X39000Y1710D01*
X38000Y1710D01*
X37000Y1710D01*
X36000Y1710D01*
X35000Y1710D01*
X34000Y1710D01*
X33000Y1710D01*
X32000Y1710D01*
X31000Y1710D01*
X30000Y1710D01*
X29000Y1710D01*
X28000Y1710D01*
X27000Y1710D01*
X26000Y1710D01*
X25000Y1710D01*
X24000Y1710D01*
X23000Y2710D01*
X22000Y2710D01*
X21000Y2710D01*
X20000Y2710D01*
X19000Y3710D01*
X18000Y3710D01*
X17000Y4710D01*
X16000Y5710D01*
X15000Y5710D01*
X14000Y6710D01*
X13000Y7710D01*
X12000Y8710D01*
X11000Y9710D01*
X10000Y10710D01*
X10000Y11710D01*
X9000Y12710D01*
X8000Y13710D01*
X8000Y14710D01*
X7000Y15710D01*
X6000Y16710D01*
X6000Y17710D01*
X5000Y18710D01*
X5000Y20710D01*
X4000Y21710D01*
X4000Y22710D01*
X3000Y23710D01*
X3000Y25710D01*
X2000Y26710D01*
X2000Y29710D01*
X1000Y30710D01*
X1000Y35710D01*
X0Y36710D01*
X0Y4295710D01*
X1000Y4296710D01*
X1000Y4301710D01*
X2000Y4302710D01*
X2000Y4305710D01*
X3000Y4306710D01*
X3000Y4308710D01*
X4000Y4309710D01*
X4000Y4310710D01*
X5000Y4311710D01*
X5000Y4313710D01*
X6000Y4314710D01*
X6000Y4315710D01*
X7000Y4316710D01*
X8000Y4317710D01*
X8000Y4318710D01*
X9000Y4319710D01*
X10000Y4320710D01*
X10000Y4321710D01*
X11000Y4322710D01*
X12000Y4323710D01*
X13000Y4324710D01*
X14000Y4325710D01*
X15000Y4326710D01*
X16000Y4326710D01*
X17000Y4327710D01*
X18000Y4328710D01*
X19000Y4328710D01*
X20000Y4329710D01*
X21000Y4329710D01*
X22000Y4329710D01*
X23000Y4329710D01*
X24000Y4330710D01*
D02*
G04 End of contour*
M02*