G04 MADE WITH FRITZING*
G04 WWW.FRITZING.ORG*
G04 DOUBLE SIDED*
G04 HOLES PLATED*
G04 CONTOUR ON CENTER OF CONTOUR VECTOR*
%FSLAX26Y26*%
%MOIN*%
%ADD10C,0.085000*%
%ADD11C,0.084667*%
%ADD12C,0.084695*%
%ADD13C,0.134033*%
%ADD14C,0.080000*%
%ADD15C,0.095000*%
%ADD16C,0.084000*%
%ADD17C,0.072992*%
%ADD18C,0.088000*%
%ADD19R,0.085000X0.085000*%
%ADD20R,0.084000X0.084000*%
%ADD21R,0.072992X0.072992*%
G04 MASK0*
%FSLAX26Y26*%
%MOIN*%
D10*
X457367Y2823840D03*
X557367Y2823840D03*
X657367Y2823840D03*
X342100Y3691217D03*
X442100Y3691217D03*
X542100Y3691217D03*
X83844Y2803920D03*
X183844Y2803920D03*
X283844Y2803920D03*
X600200Y952750D03*
X700200Y952750D03*
X600200Y952750D03*
X700200Y952750D03*
D11*
X369310Y861170D03*
X269310Y861180D03*
D12*
X169296Y861170D03*
D13*
X463462Y565890D03*
X75157Y565890D03*
D14*
X617533Y604170D03*
X617533Y404170D03*
D15*
X58619Y4155702D03*
X182653Y4155712D03*
X507441Y4155694D03*
X179889Y1707700D03*
X179899Y1583670D03*
X179881Y1258880D03*
X55563Y2520180D03*
X179597Y2520190D03*
X504385Y2520170D03*
X60930Y3391398D03*
X184964Y3391408D03*
X509752Y3391390D03*
D16*
X189856Y125140D03*
X289856Y125140D03*
X389856Y125140D03*
X489856Y125140D03*
X589856Y125140D03*
X189856Y225140D03*
X289856Y225140D03*
X389856Y225140D03*
X489856Y225140D03*
X589856Y225140D03*
X189856Y125140D03*
X289856Y125140D03*
X389856Y125140D03*
X489856Y125140D03*
X589856Y125140D03*
X189856Y225140D03*
X289856Y225140D03*
X389856Y225140D03*
X489856Y225140D03*
X589856Y225140D03*
X402578Y2654410D03*
X702578Y2654410D03*
X402578Y2654410D03*
X702578Y2654410D03*
X402578Y2654410D03*
X702578Y2654410D03*
X670944Y3511333D03*
X370944Y3511333D03*
X670944Y3511333D03*
X370944Y3511333D03*
X670944Y3511333D03*
X370944Y3511333D03*
X419578Y1537960D03*
X419578Y1237960D03*
X721433Y396750D03*
X721433Y696750D03*
D10*
X718189Y4085787D03*
X618189Y4085787D03*
X622060Y791940D03*
X722060Y791940D03*
X622060Y791940D03*
X722060Y791940D03*
X710561Y3701330D03*
X710561Y3601330D03*
X710561Y3701330D03*
X710561Y3601330D03*
D17*
X667400Y2221080D03*
X568967Y2221080D03*
X619539Y3134310D03*
X619539Y3035880D03*
X619539Y3904908D03*
X619539Y3806475D03*
D10*
X223089Y1861490D03*
X323089Y1861490D03*
X223089Y1861490D03*
X323089Y1861490D03*
X144156Y2241820D03*
X244156Y2241820D03*
X144156Y2241820D03*
X244156Y2241820D03*
X147089Y3090040D03*
X247089Y3090040D03*
X147089Y3090040D03*
X247089Y3090040D03*
X128233Y3828893D03*
X228233Y3828893D03*
X128233Y3828893D03*
X228233Y3828893D03*
D16*
X122041Y1062250D03*
X229041Y1062250D03*
X336041Y1062250D03*
D18*
X628700Y1124950D03*
X528739Y1124950D03*
X531141Y2024950D03*
X648861Y2024950D03*
X628700Y1124950D03*
X528739Y1124950D03*
X531141Y2024950D03*
X648861Y2024950D03*
D16*
X741244Y4273149D03*
X441244Y4273149D03*
X741244Y4273149D03*
X441244Y4273149D03*
X741244Y4273149D03*
X441244Y4273149D03*
D19*
X600200Y952750D03*
X600200Y952750D03*
D20*
X189856Y225140D03*
X189856Y225140D03*
D21*
X667400Y2221078D03*
X619539Y3134308D03*
X619539Y3904908D03*
D19*
X223089Y1861490D03*
X223089Y1861490D03*
X144156Y2241820D03*
X144156Y2241820D03*
X147089Y3090040D03*
X147089Y3090040D03*
X128233Y3828893D03*
X128233Y3828893D03*
G04 End of Mask0*
M02*