; NON-PLATED HOLES START AT T1
; THROUGH (PLATED) HOLES START AT T100
M48
INCH
T100C0.035000
T101C0.035433
T102C0.030000
T103C0.045000
T104C0.031497
T105C0.088356
T106C0.041361
T107C0.040000
T108C0.041333
T109C0.038000
%
T100
X005421Y036912
X001838Y028039
X002441Y022418
X004421Y036912
X001441Y022418
X007105Y037013
X001470Y030900
X000838Y028039
X007181Y040857
X003421Y036912
X006220Y007919
X005573Y028238
X002470Y030900
X006002Y009527
X004573Y028238
X002230Y018614
X003230Y018614
X001282Y038288
X006573Y028238
X007220Y007919
X006181Y040857
X007105Y036013
X007002Y009527
X002282Y038288
X002838Y028039
T101
X007214Y006967
X007412Y042731
X007025Y026544
X004195Y015379
X007214Y003967
X004025Y026544
X004195Y012379
X003709Y035113
X006709Y035113
X004412Y042731
T102
X006175Y006041
X006175Y004041
T103
X000586Y041557
X001798Y017077
X001826Y041557
X000609Y033913
X005074Y041556
X001798Y015836
X005097Y033913
X005043Y025201
X001798Y012588
X001849Y033914
X001795Y025201
X000555Y025201
T104
X006195Y039049
X006195Y030358
X006195Y031343
X005689Y022210
X006195Y038064
X006674Y022210
T105
X000751Y005658
X004634Y005658
T106
X001692Y008611
T107
X003898Y002251
X001898Y001251
X002898Y002251
X004898Y002251
X001220Y010622
X005898Y001251
X003898Y001251
X001898Y002251
X002898Y001251
X004898Y001251
X003360Y010622
X005898Y002251
X002290Y010622
T108
X002693Y008611
X003693Y008611
T109
X005287Y011249
X005311Y020249
X006287Y011249
X006488Y020249
T00
M30
